<?xml version="1.0" encoding="UTF-8" standalone="no"?>
<svg
   xmlns:dc="http://purl.org/dc/elements/1.1/"
   xmlns:cc="http://creativecommons.org/ns#"
   xmlns:rdf="http://www.w3.org/1999/02/22-rdf-syntax-ns#"
   xmlns:svg="http://www.w3.org/2000/svg"
   xmlns="http://www.w3.org/2000/svg"
   xmlns:sodipodi="http://sodipodi.sourceforge.net/DTD/sodipodi-0.dtd"
   xmlns:inkscape="http://www.inkscape.org/namespaces/inkscape"
   height="1146.4603"
   width="2000"
   version="1.1"
   id="svg206"
   sodipodi:docname="dojo.svg"
   inkscape:version="0.92.3 (2405546, 2018-03-11)">
  <metadata
     id="metadata210">
    <rdf:RDF>
      <cc:Work
         rdf:about="">
        <dc:format>image/svg+xml</dc:format>
        <dc:type
           rdf:resource="http://purl.org/dc/dcmitype/StillImage" />
        <dc:title></dc:title>
      </cc:Work>
    </rdf:RDF>
  </metadata>
  <sodipodi:namedview
     pagecolor="#ffffff"
     bordercolor="#666666"
     borderopacity="1"
     objecttolerance="10"
     gridtolerance="10"
     guidetolerance="10"
     inkscape:pageopacity="0"
     inkscape:pageshadow="2"
     inkscape:window-width="1920"
     inkscape:window-height="1057"
     id="namedview208"
     showgrid="false"
     inkscape:zoom="0.23266225"
     inkscape:cx="-62.669079"
     inkscape:cy="199.118"
     inkscape:window-x="1592"
     inkscape:window-y="-8"
     inkscape:window-maximized="1"
     inkscape:current-layer="g1045" />
  <defs
     id="defs204">
    <linearGradient
       gradientTransform="matrix(8e-4,0.0217,-0.0676,0.0024,836.7,172.9)"
       gradientUnits="userSpaceOnUse"
       id="gradient0"
       spreadMethod="pad"
       x1="-819.20001"
       x2="819.20001">
      <stop
         offset="0.09803921568627451"
         stop-color="#dbb99a"
         id="stop84" />
      <stop
         offset="0.9254901960784314"
         stop-color="#d6a584"
         id="stop86" />
    </linearGradient>
    <linearGradient
       gradientTransform="matrix(4e-4,0.015,-0.0673,0.0018,809.05,173.9)"
       gradientUnits="userSpaceOnUse"
       id="gradient1"
       spreadMethod="pad"
       x1="-819.20001"
       x2="819.20001">
      <stop
         offset="0.09803921568627451"
         stop-color="#dbb99a"
         id="stop89" />
      <stop
         offset="0.9254901960784314"
         stop-color="#d6a584"
         id="stop91" />
    </linearGradient>
    <linearGradient
       gradientTransform="matrix(4e-4,0.0156,-0.0673,0.0018,782.5,174.75)"
       gradientUnits="userSpaceOnUse"
       id="gradient2"
       spreadMethod="pad"
       x1="-819.20001"
       x2="819.20001">
      <stop
         offset="0.09803921568627451"
         stop-color="#dbb99a"
         id="stop94" />
      <stop
         offset="0.9254901960784314"
         stop-color="#d6a584"
         id="stop96" />
    </linearGradient>
    <linearGradient
       gradientTransform="matrix(0.0019,0.0357,-0.0681,0.0036,726.45,176.25)"
       gradientUnits="userSpaceOnUse"
       id="gradient3"
       spreadMethod="pad"
       x1="-819.20001"
       x2="819.20001">
      <stop
         offset="0.09803921568627451"
         stop-color="#dbb99a"
         id="stop99" />
      <stop
         offset="0.9254901960784314"
         stop-color="#d6a584"
         id="stop101" />
    </linearGradient>
    <linearGradient
       gradientTransform="matrix(4e-4,0.0149,-0.0671,0.0018,640.9,178.25)"
       gradientUnits="userSpaceOnUse"
       id="gradient4"
       spreadMethod="pad"
       x1="-819.20001"
       x2="819.20001">
      <stop
         offset="0.09803921568627451"
         stop-color="#dbb99a"
         id="stop104" />
      <stop
         offset="0.9254901960784314"
         stop-color="#d6a584"
         id="stop106" />
    </linearGradient>
    <linearGradient
       gradientTransform="matrix(5e-4,0.0152,-0.0671,0.0023,616.2,178.65)"
       gradientUnits="userSpaceOnUse"
       id="gradient5"
       spreadMethod="pad"
       x1="-819.20001"
       x2="819.20001">
      <stop
         offset="0.09803921568627451"
         stop-color="#dbb99a"
         id="stop109" />
      <stop
         offset="0.9254901960784314"
         stop-color="#d6a584"
         id="stop111" />
    </linearGradient>
    <linearGradient
       gradientTransform="matrix(0.0011,0.0163,-0.067,0.0047,668.3,177.75)"
       gradientUnits="userSpaceOnUse"
       id="gradient6"
       spreadMethod="pad"
       x1="-819.20001"
       x2="819.20001">
      <stop
         offset="0.09803921568627451"
         stop-color="#dbb99a"
         id="stop114" />
      <stop
         offset="0.9254901960784314"
         stop-color="#d6a584"
         id="stop116" />
    </linearGradient>
    <linearGradient
       gradientTransform="matrix(5e-4,0.0176,-0.067,0.0018,532.45,179.75)"
       gradientUnits="userSpaceOnUse"
       id="gradient7"
       spreadMethod="pad"
       x1="-819.20001"
       x2="819.20001">
      <stop
         offset="0.09803921568627451"
         stop-color="#dbb99a"
         id="stop119" />
      <stop
         offset="0.9254901960784314"
         stop-color="#d6a584"
         id="stop121" />
    </linearGradient>
    <linearGradient
       gradientTransform="matrix(2e-4,0.0161,-0.067,9e-4,558.8,179.5)"
       gradientUnits="userSpaceOnUse"
       id="gradient8"
       spreadMethod="pad"
       x1="-819.20001"
       x2="819.20001">
      <stop
         offset="0.09803921568627451"
         stop-color="#dbb99a"
         id="stop124" />
      <stop
         offset="0.9254901960784314"
         stop-color="#d6a584"
         id="stop126" />
    </linearGradient>
    <linearGradient
       gradientTransform="matrix(3e-4,0.0166,-0.0671,0.0012,587.95,179.15)"
       gradientUnits="userSpaceOnUse"
       id="gradient9"
       spreadMethod="pad"
       x1="-819.20001"
       x2="819.20001">
      <stop
         offset="0.09803921568627451"
         stop-color="#dbb99a"
         id="stop129" />
      <stop
         offset="0.9254901960784314"
         stop-color="#d6a584"
         id="stop131" />
    </linearGradient>
    <linearGradient
       gradientTransform="matrix(-2e-4,0.037,-0.067,-3e-4,415.7,180.15)"
       gradientUnits="userSpaceOnUse"
       id="gradient10"
       spreadMethod="pad"
       x1="-819.20001"
       x2="819.20001">
      <stop
         offset="0.09803921568627451"
         stop-color="#dbb99a"
         id="stop134" />
      <stop
         offset="0.9254901960784314"
         stop-color="#d6a584"
         id="stop136" />
    </linearGradient>
    <linearGradient
       gradientTransform="matrix(-4e-4,0.0177,-0.0669,-0.0015,480.4,180.15)"
       gradientUnits="userSpaceOnUse"
       id="gradient11"
       spreadMethod="pad"
       x1="-819.20001"
       x2="819.20001">
      <stop
         offset="0.09803921568627451"
         stop-color="#dbb99a"
         id="stop139" />
      <stop
         offset="0.9254901960784314"
         stop-color="#d6a584"
         id="stop141" />
    </linearGradient>
    <linearGradient
       gradientTransform="matrix(9e-4,0.0181,-0.0668,0.0032,506.9,179.95)"
       gradientUnits="userSpaceOnUse"
       id="gradient12"
       spreadMethod="pad"
       x1="-819.20001"
       x2="819.20001">
      <stop
         offset="0.09803921568627451"
         stop-color="#dbb99a"
         id="stop144" />
      <stop
         offset="0.9254901960784314"
         stop-color="#d6a584"
         id="stop146" />
    </linearGradient>
    <linearGradient
       gradientTransform="matrix(7e-4,0.0182,-0.0669,0.0026,348.1,180)"
       gradientUnits="userSpaceOnUse"
       id="gradient13"
       spreadMethod="pad"
       x1="-819.20001"
       x2="819.20001">
      <stop
         offset="0.09803921568627451"
         stop-color="#dbb99a"
         id="stop149" />
      <stop
         offset="0.9254901960784314"
         stop-color="#d6a584"
         id="stop151" />
    </linearGradient>
    <linearGradient
       gradientTransform="matrix(-1e-4,0.0157,-0.067,-6e-4,320.65,179.7)"
       gradientUnits="userSpaceOnUse"
       id="gradient14"
       spreadMethod="pad"
       x1="-819.20001"
       x2="819.20001">
      <stop
         offset="0.09803921568627451"
         stop-color="#dbb99a"
         id="stop154" />
      <stop
         offset="0.9254901960784314"
         stop-color="#d6a584"
         id="stop156" />
    </linearGradient>
    <linearGradient
       gradientTransform="matrix(-1e-4,0.0166,-0.067,-4e-4,292.7,179.45)"
       gradientUnits="userSpaceOnUse"
       id="gradient15"
       spreadMethod="pad"
       x1="-819.20001"
       x2="819.20001">
      <stop
         offset="0.09803921568627451"
         stop-color="#dbb99a"
         id="stop159" />
      <stop
         offset="0.9254901960784314"
         stop-color="#d6a584"
         id="stop161" />
    </linearGradient>
    <linearGradient
       gradientTransform="matrix(-1e-4,0.0182,-0.0671,-4e-4,205.65,178)"
       gradientUnits="userSpaceOnUse"
       id="gradient16"
       spreadMethod="pad"
       x1="-819.20001"
       x2="819.20001">
      <stop
         offset="0.09803921568627451"
         stop-color="#dbb99a"
         id="stop164" />
      <stop
         offset="0.9254901960784314"
         stop-color="#d6a584"
         id="stop166" />
    </linearGradient>
    <linearGradient
       gradientTransform="matrix(5e-4,0.0155,-0.0671,0.0021,233.15,178.5)"
       gradientUnits="userSpaceOnUse"
       id="gradient17"
       spreadMethod="pad"
       x1="-819.20001"
       x2="819.20001">
      <stop
         offset="0.09803921568627451"
         stop-color="#dbb99a"
         id="stop169" />
      <stop
         offset="0.9254901960784314"
         stop-color="#d6a584"
         id="stop171" />
    </linearGradient>
    <linearGradient
       gradientTransform="matrix(0,0.0186,-0.0671,0,263.15,179)"
       gradientUnits="userSpaceOnUse"
       id="gradient18"
       spreadMethod="pad"
       x1="-819.20001"
       x2="819.20001">
      <stop
         offset="0.09803921568627451"
         stop-color="#dbb99a"
         id="stop174" />
      <stop
         offset="0.9254901960784314"
         stop-color="#d6a584"
         id="stop176" />
    </linearGradient>
    <linearGradient
       gradientTransform="matrix(-0.0012,0.0545,-0.0684,-0.0015,95.95,175.05)"
       gradientUnits="userSpaceOnUse"
       id="gradient19"
       spreadMethod="pad"
       x1="-819.20001"
       x2="819.20001">
      <stop
         offset="0.09803921568627451"
         stop-color="#dbb99a"
         id="stop179" />
      <stop
         offset="0.9254901960784314"
         stop-color="#d6a584"
         id="stop181" />
    </linearGradient>
    <linearGradient
       gradientTransform="matrix(2e-4,0.0154,-0.0672,7e-4,153.85,176.75)"
       gradientUnits="userSpaceOnUse"
       id="gradient20"
       spreadMethod="pad"
       x1="-819.20001"
       x2="819.20001">
      <stop
         offset="0.09803921568627451"
         stop-color="#dbb99a"
         id="stop184" />
      <stop
         offset="0.9254901960784314"
         stop-color="#d6a584"
         id="stop186" />
    </linearGradient>
    <linearGradient
       gradientTransform="matrix(-1e-4,0.0156,-0.0672,-6e-4,180.75,177.4)"
       gradientUnits="userSpaceOnUse"
       id="gradient21"
       spreadMethod="pad"
       x1="-819.20001"
       x2="819.20001">
      <stop
         offset="0.09803921568627451"
         stop-color="#dbb99a"
         id="stop189" />
      <stop
         offset="0.9254901960784314"
         stop-color="#d6a584"
         id="stop191" />
    </linearGradient>
    <linearGradient
       gradientTransform="matrix(-1e-4,0.0137,-0.0673,-6e-4,41.5,173.15)"
       gradientUnits="userSpaceOnUse"
       id="gradient22"
       spreadMethod="pad"
       x1="-819.20001"
       x2="819.20001">
      <stop
         offset="0.09803921568627451"
         stop-color="#dbb99a"
         id="stop194" />
      <stop
         offset="0.9254901960784314"
         stop-color="#d6a584"
         id="stop196" />
    </linearGradient>
    <linearGradient
       gradientTransform="matrix(1e-4,0.0147,-0.0674,6e-4,16.3,172.25)"
       gradientUnits="userSpaceOnUse"
       id="gradient23"
       spreadMethod="pad"
       x1="-819.20001"
       x2="819.20001">
      <stop
         offset="0.09803921568627451"
         stop-color="#dbb99a"
         id="stop199" />
      <stop
         offset="0.9254901960784314"
         stop-color="#d6a584"
         id="stop201" />
    </linearGradient>
    <linearGradient
       x2="819.20001"
       x1="-819.20001"
       spreadMethod="pad"
       id="gradient0-3"
       gradientUnits="userSpaceOnUse"
       gradientTransform="matrix(2.2877247e-4,-0.02813902,0.06405629,4.5754495e-4,999.50036,43.024914)">
      <stop
         id="stop1047"
         stop-color="#dbb99a"
         offset="0.09803921568627451" />
      <stop
         id="stop1049"
         stop-color="#ead1b8"
         offset="1.0" />
    </linearGradient>
  </defs>
  <g
     id="g1045"
     transform="matrix(1.0242875,0,0,1.0242875,-19.095735,614.2591)"
     style="opacity:1">
    <path
       id="path1017"
       d="m 1972.8128,-63.468668 v 60.0527692 h -0.1145 q -1.258,-1.2582498 -2.8596,-1.2582498 h -0.3431 Q 978.68211,36.848054 23.099542,-8.9064392 21.154976,-9.0208252 19.782341,-7.6481894 H 18.752866 V -64.269364 l 97.914614,3.774741 5.49054,4.575456 q 27.10953,21.618985 65.54331,21.618985 43.80993,0 93.33916,-19.788811 v -1.029478 h 2.5165 q 284.1354,8.350184 574.10449,9.837207 35.6885,16.014077 86.93354,16.014077 50.44427,0 89.44998,-14.298279 v -1.372636 h 3.7748 q 285.1648,-0.571934 575.9346,-7.549478 l 10.4091,3.317194 q 40.264,11.66739 87.1624,11.66739 52.3889,0 87.963,-17.157932 l 6.0625,-3.088425 167.4614,-5.719315"
       inkscape:connector-curvature="0"
       style="opacity:1;fill:#ffecd2;fill-rule:evenodd;stroke:none;stroke-width:2.28772449" />
    <path
       id="path1019"
       d="m 1972.8128,-3.4158988 v 0.114385 q 1.2582,1.1438628 1.3727,2.97404079 v 0.1143868 q 0.1144,1.83018001 -1.1439,3.20281481 l -0.2288,0.228772 q -1.2583,1.1438628 -2.9741,1.2582488 H 1969.61 Q 978.56773,45.998952 22.641997,0.24445779 20.811817,0.13007279 19.553568,-1.242561 l -0.800702,-1.0294758 -0.457545,-2.2877248 0.457545,-1.8301808 1.029475,-1.258247 Q 21.154976,-9.0208252 23.099542,-8.9064392 978.68211,36.848054 1969.4956,-4.6741486 h 0.3431 q 1.6016,0 2.8596,1.2582498 h 0.1145 M 147.89492,158.66944 q 4.23229,6.40563 11.55301,6.52002 6.97756,-0.22878 24.1355,-9.95162 19.44565,-11.09545 28.82531,-10.86668 10.29477,-0.11439 21.16146,9.72283 8.3502,7.4351 13.26881,7.77827 4.68984,-0.22879 14.52705,-6.40564 12.23933,-7.89265 17.15795,-7.66388 5.14736,-0.34315 14.75582,8.3502 6.97754,6.29124 11.89616,6.52002 6.17685,-0.11439 14.0695,-6.63441 10.18038,-8.46458 17.95864,-8.23581 3.3172,-0.34315 14.52705,7.20633 8.80774,5.94809 16.7004,6.06248 7.4351,-0.11439 25.50811,-8.35019 19.78883,-9.26529 31.45622,-9.15091 8.35021,-0.11438 19.33128,7.77826 8.57896,6.17686 12.69688,6.40563 5.49053,-0.11438 19.44565,-6.74878 16.12845,-7.54949 21.39023,-7.43511 6.40562,0 10.63791,3.08844 l 6.29124,5.94807 q 6.17686,6.7488 17.50111,6.7488 12.12493,0 21.84775,-6.7488 11.78179,-8.46457 18.07303,-8.2358 8.92213,-0.11439 16.24285,7.89265 5.26176,5.49053 14.64144,5.49053 7.32071,-0.11438 19.67443,-6.97755 14.41267,-8.23582 21.16145,-8.00704 7.32071,-0.11439 19.33127,7.20633 9.72283,5.94809 15.21337,6.06247 8.80775,-0.11438 21.39023,-5.14738 v 0.11439 q 13.95512,-5.94808 21.04706,-5.8337 7.43511,-0.11438 22.53409,8.00704 13.15442,6.97756 24.36427,6.97756 8.57896,0 19.44566,-3.88914 12.12495,-4.34667 21.39022,-4.34667 12.69687,0 25.05059,8.69335 10.29475,7.09195 17.84425,7.20633 7.66387,-0.11438 21.619,-8.35019 16.24285,-9.49406 23.33479,-9.26529 7.32071,-0.11438 24.0211,5.71932 14.9846,5.03299 22.19094,5.14738 7.09195,-0.22877 18.87373,-8.80774 h 0.11439 q 14.29826,-10.63793 32.71441,-5.26177 16.70047,4.91861 31.45627,11.43863 13.6119,5.8337 20.3607,5.94808 12.8113,0 27.4527,-7.43511 v -0.11439 q 16.4716,-8.35019 26.1944,-8.2358 4.118,-0.11439 22.8773,7.32072 16.8147,6.6344 23.6779,6.74879 8.9222,0 18.645,-4.46107 v -0.11438 q 11.5531,-5.49055 19.217,-5.37615 5.6047,-0.34317 13.383,7.66388 5.1475,5.37615 9.0365,5.60493 5.4906,-0.1144 17.7299,-6.52003 14.5271,-7.77827 19.4457,-7.54949 2.9741,-0.11439 12.3537,3.54597 7.6638,2.97405 12.125,3.08843 8.6933,-0.11438 19.1026,-6.86318 12.3536,-8.2358 21.2756,-8.12142 7.8928,-0.11438 20.4752,6.17686 10.5235,5.37616 16.1285,5.49053 6.9775,-0.11437 18.6449,-5.49053 13.3833,-6.29124 19.5601,-6.17686 7.3207,-0.11438 20.8184,6.17686 11.4385,5.37616 17.1578,5.49053 5.3761,-0.22877 18.4163,-7.4351 14.8701,-8.46458 27.3382,-8.35019 12.6968,-0.11439 28.4821,9.72282 13.7264,8.46459 24.3643,8.57897 4.2323,-0.11438 16.9291,-3.66035 14.0697,-4.00352 20.0177,-3.88914 7.2064,0 12.1249,5.26177 v 0.11439 q 2.9741,2.97404 6.7488,2.97404 8.9222,-0.11438 19.217,-6.86318 12.1249,-8.12142 25.2792,-8.12142 10.0661,0 20.704,4.91861 8.9221,4.2323 15.4422,4.2323 13.4975,0 18.3018,-4.00353 l 4.5754,-3.88913 -0.4576,0.11439 q 3.2028,-2.17334 8.8078,-2.17334 2.4021,0 17.3868,3.43158 13.955,3.20282 22.9914,3.20282 10.0661,0 14.184,-2.05895 5.1474,-2.97404 10.8667,-2.97404 4.8042,-0.11439 17.158,4.00351 v 0.11439 q 10.8665,3.43159 17.6154,3.43159 9.2653,0 20.2463,-3.88913 12.2394,-4.46107 20.2464,-4.46107 5.8337,-0.11438 17.6156,4.46107 9.9516,3.77474 12.6968,3.88913 2.9741,-0.11439 14.7559,-4.34668 13.3831,-4.91861 17.3867,-4.80422 4.9186,-0.11439 12.3537,4.68984 5.4904,3.54597 14.1839,3.54597 7.7783,0 15.2134,-4.2323 h 0.1142 q 12.9257,-7.20632 17.6155,-8.80773 h 0.1144 q 3.8893,-1.37263 12.4682,-2.85965 h 0.1143 l 6.0625,-1.02949 3.2028,-0.68631 2.5165,-0.68631 0.9151,-0.22878 1.487,-0.34317 2.5165,0.22878 q 1.2582,0.68631 1.7158,2.05895 0.3431,1.25825 -0.2287,2.51649 l -2.059,1.7158 -2.5164,0.68632 -0.9152,0.22878 -3.4316,0.8007 -3.2028,0.57193 -5.0329,0.91509 h 0.1143 q -8.0071,1.37264 -11.553,2.63087 -4.4612,1.48702 -16.586,8.23583 -9.0366,5.14737 -18.6449,5.14737 -10.9812,0 -17.9587,-4.68983 -5.2618,-3.43159 -8.5789,-3.54598 -3.3173,0.11439 -14.9847,4.34668 h -0.1143 q -12.5826,4.57545 -16.4716,4.80422 l 113.0135,312.84634 32.7144,90.47951 h -7.2062 l -25.5082,-70.5763 -75.9525,-210.1275 -44.8393,-124.10907 -7.8927,-2.85966 h -0.1144 q -5.8337,-2.28773 -9.8372,-3.20281 l 41.751,125.4817 86.819,260.68623 8.2359,24.70741 -12.9257,2.40211 -8.5788,-27.10952 -83.502,-262.85956 -39.3489,-123.99468 q -6.52,0.57192 -15.5566,3.88912 l -0.1142,0.11438 q -11.5531,5.60494 -20.4752,5.49055 -9.0365,-0.22876 -21.8478,-5.14738 -10.8667,-3.54598 -14.9846,-3.66036 -3.8891,0 -7.4351,3.31719 -3.4316,3.31721 -14.4126,3.4316 -11.0956,0.11439 -27.6816,-5.14738 h -0.1144 l -15.7852,-3.20282 q -3.3172,0 -5.1475,1.14387 l -1.83,0.45754 q 0.6862,0.57193 -1.2583,2.5165 -5.9481,8.23581 -18.3018,7.5495 -12.3537,-0.68633 -22.191,-5.71932 -9.9515,-5.14738 -18.645,-5.14738 -11.0954,0 -21.5046,6.97756 -10.4091,6.86318 -19.6744,7.89265 l 85.5609,372.09842 20.4752,88.99248 h -6.9775 l -20.4753,-88.99248 -71.4913,-311.13057 -14.0695,-61.19662 q -4.4611,-1.14387 -8.007,-4.80423 h -0.1145 q -2.8596,-3.20281 -7.0919,-3.20281 l -8.3502,1.48702 13.4976,64.62822 65.2001,314.21899 18.4162,88.99248 -10.2948,0.91509 -17.9587,-89.90757 -63.0267,-315.24846 -12.3537,-61.31102 -0.1145,-0.34316 -2.9738,0.91508 q -12.5825,4.34669 -19.9033,5.033 -7.3207,0.68632 -24.0212,-9.60845 -16.8148,-10.40915 -27.9102,-10.52353 -10.8667,0.11438 -25.0507,9.26529 -14.1838,9.1509 -20.8182,9.03651 -6.5201,-0.34315 -19.1024,-7.20633 -12.5825,-6.86317 -18.7594,-6.97756 -5.2619,0.11439 -18.5305,6.86317 -13.2689,6.6344 -20.7041,6.6344 -7.4351,0 -18.0729,-6.6344 -10.7523,-6.74878 -17.5012,-6.86317 -7.3206,0.11439 -19.9031,8.57897 -4.9187,3.20281 -8.9221,5.03299 l 34.8877,373.35667 6.0625,65.5433 h -6.8631 l -6.0626,-65.5433 -31.7993,-339.72712 -2.9741,-31.22744 -3.889,0.22878 q -6.9776,-0.68631 -14.7559,-4.11791 l 2.1734,34.0871 21.7332,340.75659 4.118,65.5433 -10.981,3.31719 -3.6603,-68.86049 -18.4163,-341.09975 -2.0589,-36.60359 -3.546,-0.9151 q -4.0036,0.22878 -17.158,7.43511 -13.1543,7.09195 -18.6449,8.00704 -5.6049,0.91509 -13.04,-6.63441 -7.4352,-7.66387 -10.7522,-8.00703 -6.5202,0.11439 -16.2429,4.68984 -12.5825,7.89265 -21.3904,7.66387 -8.8076,-0.34316 -25.9656,-8.35019 -17.1579,-8.00704 -20.8183,-8.12143 -8.5789,0.11439 -23.1059,7.54949 -18.7594,9.9516 -28.9397,9.49406 -10.2948,-0.45754 -24.5931,-7.32071 -14.4126,-6.86319 -30.76989,-11.55301 -11.78179,-3.4316 -21.50461,1.02947 l 26.88076,382.73634 6.06254,87.39107 h -6.86326 l -6.2912,-89.33565 -24.02114,-342.81552 -2.40211,-33.85834 q -13.2688,9.9516 -21.16145,9.9516 l 0.34316,24.36428 3.77475,342.35798 1.02948,95.85567 -10.18039,-6.52002 -0.34315,-89.33565 -1.48703,-342.2436 -0.11438,-25.27935 q -7.20633,-1.48703 -17.84425,-5.49055 h -0.11439 q -15.09898,-5.26177 -21.73338,-5.37615 -5.94809,0.22877 -20.70391,9.37967 -14.75582,9.1509 -23.22041,10.18038 -8.46457,0.91509 -20.81828,-8.46458 -12.46811,-9.37968 -23.10603,-9.37968 -8.35019,0 -19.1025,3.88914 v 0.11439 q -11.32423,5.49053 -22.07654,6.06247 -10.86669,0.45753 -25.50813,-8.12144 -14.75583,-8.57897 -21.04707,-8.69335 -6.17685,0.11438 -18.41618,5.26177 -13.04003,7.54949 -20.58951,8.57897 l -3.54599,40.14958 -28.93971,329.43233 -6.52002,74.35106 -9.26528,-1.60141 6.6344,-70.80507 30.88429,-330.80498 3.77474,-41.29344 q -6.63441,-1.83018 -14.75582,-7.89265 -5.71932,-4.23229 -9.95161,-6.06248 l -5.49054,57.42189 -31.34182,328.63166 -6.74879,70.80507 h -6.97756 l 6.74879,-70.69069 v -0.11438 l 36.94674,-387.65495 q -5.71931,0.45754 -18.53055,8.69336 -13.49759,8.57897 -24.36428,9.15089 -10.8667,0.45755 -16.92916,-10.63792 l -0.11439,-0.11439 v 0.11439 q -5.03299,-5.60493 -11.20985,-5.71931 -4.68983,0.22877 -14.06951,6.97756 h -0.11439 q -11.20983,9.2653 -25.39373,10.29476 -14.1839,1.02948 -20.36075,-7.09195 l -7.32072,-8.92212 -0.22877,-0.22877 q -2.74527,-1.83018 -6.86317,-1.83018 -4.34669,0.22876 -19.33128,7.66388 -15.09898,7.43511 -21.04706,8.46458 -6.06247,1.02947 -16.01408,-7.43511 -9.9516,-8.57896 -16.47162,-8.69335 -10.52353,0.11439 -28.59656,8.46459 v 0.11438 q -13.04003,7.89264 -21.27583,10.63792 l -14.41266,74.6942 -56.84997,293.05754 -6.86318,35.45972 h -11.20983 l 7.32071,-35.45972 59.59522,-291.79929 15.099,-74.35104 v -0.22878 l -1.60141,-0.11438 q -8.57897,-1.25825 -17.84426,-8.57897 l -4.00351,-2.97404 -19.44567,91.05143 -61.65418,286.99507 -7.66387,35.45972 h -7.09195 l 7.66387,-35.45972 82.01494,-382.16442 -1.37264,-0.57192 q -5.71931,0.22877 -14.18389,8.80774 -8.46459,8.46458 -16.58602,7.43511 -8.2358,-1.02948 -16.35721,-8.46459 -8.23582,-7.43511 -11.553,-7.77826 -3.77475,0.22877 -13.38321,6.52001 l -0.11438,0.1144 q -13.26881,10.98107 -18.64496,11.32423 -5.37615,0.22878 -17.38671,-13.3832 v -0.11438 q -8.57897,-7.77827 -16.58601,-7.89265 -8.23579,0.22877 -26.42321,11.32424 -18.3018,11.09547 -27.91024,11.89617 -9.37967,0.80071 -16.01407,-12.23933 -4.23229,-6.6344 -11.32424,-6.74879 -5.14738,0.11439 -11.32422,4.11791 -8.46459,5.14738 -13.61198,5.03299 -5.49053,0.11439 -10.637908,-3.88914 l -47.584676,154.87897 -28.82533,93.7967 -5.948084,19.33128 -8.9221263,0.80071 0.1143859,-0.1144 14.7558244,-47.12713 20.01759,-63.9419 51.016262,-163.11477 -1.487022,-2.05894 v 0.11438 q -5.833697,-8.35019 -11.324241,-8.69335 -3.545969,0.22877 -10.86669,4.68983 L 18.752866,303.25363 -15.448618,414.32267 H -22.65495 L 18.752866,279.80446 57.415411,154.20838 q -6.291242,2.97403 -10.866692,2.85965 -7.206332,0.11438 -12.12494,-6.29124 h -0.114386 l -12.124941,-16.47162 -2.74527,-3.77475 q -0.800703,-1.14386 -0.57193,-2.51649 0.114386,-1.48702 1.372634,-2.28773 0.91509,-0.68632 1.944566,-0.68632 l 0.571931,0.11439 q 1.372635,0.11438 2.173339,1.37264 l 14.870209,20.01759 q 2.745271,3.54597 6.748788,3.66035 5.376153,-0.11438 14.069507,-5.60492 11.095464,-7.09195 16.357229,-6.86318 8.464578,-0.34316 16.929167,11.55301 5.719306,8.23581 11.896158,8.46458 3.77475,-0.11438 9.9516,-4.00351 8.23583,-5.26177 14.9846,-5.14738 h 0.11439 q 10.63791,-0.11439 17.04355,9.9516 h -0.11439 l 0.11439,0.11439 m 1824.80338,-86.933588 0.1145,0.22878 q 1.2582,1.14386 1.3727,2.859652 v 0.22877 q 0.1144,1.83018 -1.1439,3.20281 l -0.2288,0.22878 q -1.1438,1.143862 -2.8597,1.258252 H 1969.61 Q 978.45333,142.76975 20.926203,85.347818 l -2.173337,-0.68632 -1.029477,-0.800702 q -1.258248,-1.48702 -1.143862,-3.3172 0.114386,-1.944572 1.601408,-3.202812 l 0.571931,-0.45755 2.745268,-0.68632 Q 978.56773,133.61884 1969.3813,70.591992 h 0.2287 q 1.7158,0 3.0883,1.14386"
       inkscape:connector-curvature="0"
       style="opacity:1;fill:#000000;fill-rule:evenodd;stroke:none;stroke-width:2.28772449" />
    <path
       id="path1021"
       d="m 1972.8128,133.39008 -3.2028,0.68631 -6.0625,1.02949 h -0.1143 q -8.5789,1.48702 -12.4682,2.85965 h -0.1144 q -4.6898,1.60141 -17.6155,8.80773 h -0.1142 q -7.4351,4.2323 -15.2134,4.2323 -8.6935,0 -14.1839,-3.54597 -7.4351,-4.80423 -12.3537,-4.68984 -4.0036,-0.11439 -17.3867,4.80422 -11.7818,4.23229 -14.7559,4.34668 -2.7452,-0.11439 -12.6968,-3.88913 -11.7819,-4.57545 -17.6156,-4.46107 -8.007,0 -20.2464,4.46107 -10.981,3.88913 -20.2463,3.88913 -6.7489,0 -17.6154,-3.43159 v -0.11439 q -12.3538,-4.1179 -17.158,-4.00351 -5.7193,0 -10.8667,2.97404 -4.1179,2.05895 -14.184,2.05895 -9.0364,0 -22.9914,-3.20282 -14.9847,-3.43158 -17.3868,-3.43158 -5.605,0 -8.8078,2.17334 l 0.4576,-0.11439 -4.5754,3.88913 q -4.8043,4.00353 -18.3018,4.00353 -6.5201,0 -15.4422,-4.2323 -10.6379,-4.91861 -20.704,-4.91861 -13.1543,0 -25.2792,8.12142 -10.2948,6.7488 -19.217,6.86318 -3.7747,0 -6.7488,-2.97404 v -0.11439 q -4.9185,-5.26177 -12.1249,-5.26177 -5.948,-0.11438 -20.0177,3.88914 -12.6968,3.54597 -16.9291,3.66035 -10.6379,-0.11438 -24.3643,-8.57897 -15.7853,-9.83721 -28.4821,-9.72282 -12.4681,-0.11439 -27.3382,8.35019 -13.0402,7.20633 -18.4163,7.4351 -5.7193,-0.11437 -17.1578,-5.49053 -13.4977,-6.29124 -20.8184,-6.17686 -6.1768,-0.11438 -19.5601,6.17686 -11.6674,5.37616 -18.6449,5.49053 -5.605,-0.11437 -16.1285,-5.49053 -12.5824,-6.29124 -20.4752,-6.17686 -8.922,-0.11438 -21.2756,8.12142 -10.4093,6.7488 -19.1026,6.86318 -4.4612,-0.11438 -12.125,-3.08843 -9.3796,-3.66036 -12.3537,-3.54597 -4.9186,-0.22878 -19.4457,7.54949 -12.2393,6.40563 -17.7299,6.52003 -3.889,-0.22878 -9.0365,-5.60493 -7.7783,-8.00705 -13.383,-7.66388 -7.6639,-0.1144 -19.217,5.37615 v 0.11438 q -9.7228,4.46107 -18.645,4.46107 -6.8632,-0.11439 -23.6779,-6.74879 -18.7593,-7.43511 -22.8773,-7.32072 -9.7228,-0.11439 -26.1944,8.2358 v 0.11439 q -14.6414,7.43511 -27.4527,7.43511 -6.7488,-0.11438 -20.3607,-5.94808 -14.7558,-6.52002 -31.45627,-11.43863 -18.41615,-5.37616 -32.71441,5.26177 h -0.11439 q -11.78178,8.57897 -18.87373,8.80774 -7.20634,-0.11439 -22.19094,-5.14738 -16.70039,-5.8337 -24.0211,-5.71932 -7.09194,-0.22877 -23.33479,9.26529 -13.95513,8.23581 -21.619,8.35019 -7.5495,-0.11438 -17.84425,-7.20633 -12.35372,-8.69335 -25.05059,-8.69335 -9.26527,0 -21.39022,4.34667 -10.8667,3.88914 -19.44566,3.88914 -11.20985,0 -24.36427,-6.97756 -15.09898,-8.12142 -22.53409,-8.00704 -7.09194,-0.11438 -21.04706,5.8337 v -0.11439 q -12.58248,5.033 -21.39023,5.14738 -5.49054,-0.11438 -15.21337,-6.06247 -12.01056,-7.32072 -19.33127,-7.20633 -6.74878,-0.22878 -21.16145,8.00704 -12.35372,6.86317 -19.67443,6.97755 -9.37968,0 -14.64144,-5.49053 -7.32072,-8.00704 -16.24285,-7.89265 -6.29124,-0.22877 -18.07303,8.2358 -9.72282,6.7488 -21.84775,6.7488 -11.32425,0 -17.50111,-6.7488 l -6.29124,-5.94807 q -4.23229,-3.08844 -10.63791,-3.08844 -5.26178,-0.11438 -21.39023,7.43511 -13.95512,6.6344 -19.44565,6.74878 -4.11792,-0.22877 -12.69688,-6.40563 -10.98107,-7.89264 -19.33128,-7.77826 -11.66739,-0.11438 -31.45622,9.15091 -18.07301,8.2358 -25.50811,8.35019 -7.89266,-0.11439 -16.7004,-6.06248 -11.20985,-7.54948 -14.52705,-7.20633 -7.77826,-0.22877 -17.95864,8.23581 -7.89265,6.52002 -14.0695,6.63441 -4.91862,-0.22878 -11.89616,-6.52002 -9.60846,-8.69335 -14.75582,-8.3502 -4.91862,-0.22877 -17.15795,7.66388 -9.83721,6.17685 -14.52705,6.40564 -4.91861,-0.34317 -13.26881,-7.77827 -10.86669,-9.83722 -21.16146,-9.72283 -9.37966,-0.22877 -28.82531,10.86668 -17.15794,9.72284 -24.1355,9.95162 -7.32072,-0.11439 -11.55301,-6.52002 v -0.11439 q -6.40564,-10.06599 -17.04355,-9.9516 h -0.11439 q -6.74877,-0.11439 -14.9846,5.14738 -6.17685,3.88913 -9.9516,4.00351 -6.176852,-0.22877 -11.896158,-8.46458 -8.464589,-11.89617 -16.929167,-11.55301 -5.261765,-0.22877 -16.357229,6.86318 -8.693354,5.49054 -14.069507,5.60492 -4.003517,-0.11438 -6.748788,-3.66035 L 24.929722,126.52691 q -0.800704,-1.25826 -2.173339,-1.37264 l -0.571931,-0.11439 q -1.029476,0 -1.944566,0.68632 -1.258248,0.80071 -1.372634,2.28773 H 18.752866 V 99.302934 Q 954.54662,169.65052 1972.8128,94.155552 v 39.234528"
       inkscape:connector-curvature="0"
       style="opacity:1;fill:#fbe1c3;fill-rule:evenodd;stroke:none;stroke-width:2.28772449" />
    <path
       id="path1023"
       d="m 18.752866,409.40405 28.82533,-93.7967 Q 149.49632,284.03676 278.29522,259.10055 l 23.67795,-4.46106 q -6.52001,39.57762 -22.99163,121.93572 L 246.38146,537.40226 H 18.752866 V 409.40405 M 304.26089,537.40226 361.11086,244.34472 q 128.11258,-21.39022 266.97746,-33.97271 -2.5165,31.22745 -12.69688,122.85082 -15.09898,134.86136 -21.27584,204.17943 H 304.26089 m 345.56081,-1.94458 28.93971,-329.43233 q 124.7954,-9.83723 257.94095,-12.81127 l 1.48703,342.2436 H 649.8217 m 600.0701,-339.15517 18.4163,341.09975 h -252.1073 q -9.8372,-66.22965 -23.33479,-197.43065 L 978.56773,192.41338 q 38.54807,-0.57193 77.66817,-0.57193 97.6858,0 193.6559,4.46106 m 305.0681,25.85129 63.0267,315.24846 h -280.0173 q -17.5012,-91.16583 -30.9987,-217.21946 l -11.3243,-121.47818 q 131.2011,7.54949 259.3136,23.44918 m 311.0162,52.3889 83.502,262.85956 h -256.6828 q -20.132,-60.7391 -45.4114,-154.30704 L 1617.186,270.76795 q -7.2063,-26.19445 -12.125,-41.97975 96.542,13.2688 191.1395,31.45621 l 69.7756,14.29829 m 106.8367,145.95682 -23.2204,-53.76152 q -21.2758,-50.44433 -33.0576,-80.87107 l 56.278,13.95511 v 120.67748"
       inkscape:connector-curvature="0"
       style="opacity:1;fill:#fffbca;fill-rule:evenodd;stroke:none;stroke-width:2.28772449" />
    <path
       id="path1025"
       d="m 38.770456,318.35261 -20.01759,63.9419 v -57.42187 l 11.095463,-3.66036 8.922127,-2.85967 m 224.883324,219.04965 61.65418,-286.99507 27.79585,-4.80422 -59.59522,291.79929 h -29.85481 m 350.13626,0 31.34182,-328.63166 26.42323,-2.17332 -30.88429,330.80498 h -26.88076 m 333.89341,-1.94458 -3.77475,-342.35798 23.2204,-0.45754 24.02114,342.81552 h -43.46679 m 331.14795,1.94458 -21.7332,-340.75659 19.4456,1.02947 31.7993,339.72712 h -29.5117 m 348.9925,0 -65.2001,-314.21899 24.1355,3.08842 71.4913,311.13057 h -30.4267 m 334.9228,0 -86.819,-260.68623 20.9326,4.68984 75.9525,210.1275 v 45.86889 h -10.0661"
       inkscape:connector-curvature="0"
       style="opacity:1;fill:#8e837b;fill-rule:evenodd;stroke:none;stroke-width:2.28772449" />
    <path
       id="path1027"
       d="m 1991.2046,-609.38385 v 544.500705 c -660.0152,9.36393 -1334.69381,7.971974 -2024.035855,-4.175849 V -609.38385"
       inkscape:connector-curvature="0"
       style="opacity:1;fill:#cdb79c;fill-rule:evenodd;stroke:none;stroke-width:2.48696685"
       sodipodi:nodetypes="cccc" />
    <path
       style="opacity:1;fill:url(#gradient0-3);fill-rule:evenodd;stroke:none;stroke-width:2.28772449"
       id="path1029"
       d="M 19.553568,-1.242561 Q 20.811817,0.13007279 22.641997,0.24445779 978.56773,45.998952 1969.61,4.4767494 h 0.2287 q 1.7158,-0.114386 2.9741,-1.2582488 V 71.735852 h -0.1145 q -1.3725,-1.14386 -3.0883,-1.14386 h -0.2287 Q 978.56773,133.61884 21.498134,76.196914 l -2.745268,0.68632 V -1.242561 h 0.800702"
       inkscape:connector-curvature="0" />
    <path
       id="path1031"
       d="m 1670.1468,-612.29376 h 108.7814 v 278.41609 l -108.7814,-18.07303 v -260.34306 m -322.6836,0 v 232.31842 l -52.8464,4.91862 v -237.23704 h 52.8464 m -306.555,0 v 217.44823 l -169.63475,4.91861 q -12.92565,-85.44651 0,-222.36684 h 169.63475 m -447.93646,0 v 220.76543 l -39.57764,-9.83721 v -210.92822 h 39.57764 m -346.01834,0 v 217.44823 l -115.30133,9.95159 V -612.29376 H 246.9534"
       inkscape:connector-curvature="0"
       style="opacity:1;fill:#bc9e7a;fill-rule:evenodd;stroke:none;stroke-width:2.28772449" />
    <path
       id="path1033"
       d="m 18.867252,128.01393 q -0.228773,1.37263 0.57193,2.51649 l 2.74527,3.77475 12.124941,16.47162 h 0.114386 q 4.918608,6.40562 12.12494,6.29124 4.57545,0.11438 10.866692,-2.85965 L 18.752866,279.80446 V 128.01393 h 0.114386 M 47.578196,315.60735 95.162872,160.72838 q 5.147378,4.00353 10.637908,3.88914 5.14739,0.11439 13.61198,-5.03299 6.17684,-4.00352 11.32422,-4.11791 7.09195,0.11439 11.32424,6.74879 6.6344,13.04004 16.01407,12.23933 9.60844,-0.8007 27.91024,-11.89617 18.18742,-11.09547 26.42321,-11.32424 8.00704,0.11438 16.58601,7.89265 v 0.11438 q 12.01056,13.61198 17.38671,13.3832 5.37615,-0.34316 18.64496,-11.32423 l 0.11438,-0.1144 q 9.60846,-6.29124 13.38321,-6.52001 3.31718,0.34315 11.553,7.77826 8.12141,7.43511 16.35721,8.46459 8.12143,1.02947 16.58602,-7.43511 8.46458,-8.57897 14.18389,-8.80774 l 1.37264,0.57192 -82.01494,382.16442 h -10.18037 l 32.60008,-160.82705 q 16.47162,-82.3581 22.99163,-121.93572 l -23.67795,4.46106 q -128.7989,24.93621 -230.717024,56.5068 m 313.532664,-71.26263 14.41266,-74.6942 q 8.2358,-2.74528 21.27583,-10.63792 v -0.11438 q 18.07303,-8.3502 28.59656,-8.46459 6.52002,0.11439 16.47162,8.69335 9.95161,8.46458 16.01408,7.43511 5.94808,-1.02947 21.04706,-8.46458 14.98459,-7.43512 19.33128,-7.66388 4.1179,0 6.86317,1.83018 l 0.22877,0.22877 7.32072,8.92212 q 6.17685,8.12143 20.36075,7.09195 14.1839,-1.02946 25.39373,-10.29476 h 0.11439 q 9.37968,-6.74879 14.06951,-6.97756 6.17686,0.11438 11.20985,5.71931 h 0.11439 q 6.06246,11.09547 16.92916,10.63792 10.86669,-0.57192 24.36428,-9.15089 12.81124,-8.23582 18.53055,-8.69336 L 606.81248,537.40226 H 594.1156 q 6.17686,-69.31807 21.27584,-204.17943 10.18038,-91.62337 12.69688,-122.85082 -138.86488,12.58249 -266.97746,33.97271 m 317.65055,-38.31937 3.54599,-40.14958 q 7.54948,-1.02948 20.58951,-8.57897 12.23933,-5.14739 18.41618,-5.26177 6.29124,0.11438 21.04707,8.69335 14.64144,8.57897 25.50813,8.12144 10.75231,-0.57194 22.07654,-6.06247 v -0.11439 q 10.75231,-3.88914 19.1025,-3.88914 10.63792,0 23.10603,9.37968 12.35371,9.37967 20.81828,8.46458 8.46459,-1.02948 23.22041,-10.18038 14.75582,-9.1509 20.70391,-9.37967 6.6344,0.11438 21.73338,5.37615 h 0.11439 q 10.63792,4.00352 17.84425,5.49055 l 0.11438,25.27935 q -133.14555,2.97404 -257.94095,12.81127 M 998.24216,537.40226 971.3614,154.66592 q 9.72282,-4.46107 21.50461,-1.02947 16.35729,4.68982 30.76989,11.55301 14.2983,6.86317 24.5931,7.32071 10.1803,0.45754 28.9397,-9.49406 14.527,-7.4351 23.1059,-7.54949 3.6604,0.11439 20.8183,8.12143 17.158,8.00703 25.9656,8.35019 8.8079,0.22878 21.3904,-7.66387 9.7227,-4.57545 16.2429,-4.68984 3.317,0.34316 10.7522,8.00703 7.4351,7.5495 13.04,6.63441 5.4906,-0.91509 18.6449,-8.00704 13.1544,-7.20633 17.158,-7.43511 l 3.546,0.9151 2.0589,36.60359 q -95.9701,-4.46106 -193.6559,-4.46106 -39.1201,0 -77.66817,0.57193 l 14.29828,147.55823 q 13.49759,131.201 23.33479,197.43065 h -17.95864 m 316.96414,0 -34.8877,-373.35667 q 4.0034,-1.83018 8.9221,-5.03299 12.5825,-8.46458 19.9031,-8.57897 6.7489,0.11439 17.5012,6.86317 10.6378,6.6344 18.0729,6.6344 7.4352,0 20.7041,-6.6344 13.2686,-6.74878 18.5305,-6.86317 6.1769,0.11439 18.7594,6.97756 12.5823,6.86318 19.1024,7.20633 6.6344,0.11439 20.8182,-9.03651 14.184,-9.15091 25.0507,-9.26529 11.0954,0.11438 27.9102,10.52353 16.7005,10.29477 24.0212,9.60845 7.3208,-0.68631 19.9033,-5.033 l 3.0883,-0.57192 12.3537,61.31102 q -128.1125,-15.89969 -259.3136,-23.44918 l 11.3243,121.47818 q 13.4975,126.05363 30.9987,217.21946 h -22.763 m 350.0219,0 -85.5609,-372.09842 q 9.2653,-1.02947 19.6744,-7.89265 10.4092,-6.97756 21.5046,-6.97756 8.6935,0 18.645,5.14738 9.8373,5.03299 22.191,5.71932 12.3537,0.68631 18.3018,-7.5495 1.9445,-1.94457 1.2583,-2.5165 l 1.83,-0.45754 q 1.8303,-1.14387 5.1475,-1.14387 l 15.7852,3.20282 h 0.1144 q 16.586,5.26177 27.6816,5.14738 10.981,-0.11439 14.4126,-3.4316 3.546,-3.31719 7.4351,-3.31719 4.1179,0.11438 14.9846,3.66036 12.8113,4.91862 21.8478,5.14738 8.9221,0.11439 20.4752,-5.49055 l 0.1142,-0.11438 q 9.0366,-3.3172 15.5566,-3.88912 l 39.3489,123.99468 -69.7756,-14.29829 Q 1701.603,242.057 1605.061,228.7882 q 4.9187,15.7853 12.125,41.97975 l 30.1979,112.32727 q 25.2794,93.56794 45.4114,154.30704 h -27.5671 m 307.5846,-65.7721 -113.0135,-312.84634 q 3.889,-0.22877 16.4716,-4.80422 h 0.1143 q 11.6674,-4.23229 14.9847,-4.34668 3.3171,0.11439 8.5789,3.54598 6.9775,4.68983 17.9587,4.68983 9.6083,0 18.6449,-5.14737 12.1248,-6.74881 16.586,-8.23583 3.5459,-1.25823 11.553,-2.63087 h -0.1143 l 5.0329,-0.91509 h 3.2028 v 158.88247 l -56.278,-13.95511 q 11.7818,30.42674 33.0576,80.87107 l 23.2204,53.76152 v 51.13064"
       inkscape:connector-curvature="0"
       style="opacity:1;fill:#fdf1a2;fill-rule:evenodd;stroke:none;stroke-width:2.28772449" />
    <path
       id="path1035"
       d="M 18.752866,303.25363 66.108765,149.28976 q 7.320721,-4.46106 10.86669,-4.68983 5.490544,0.34316 11.324241,8.69335 v -0.11438 l 1.487022,2.05894 -51.016262,163.11477 -8.922127,2.85967 -11.095463,3.66036 v -21.61901 m 306.555094,-52.84644 19.44567,-91.05143 4.00351,2.97404 q 9.26529,7.32072 17.84426,8.57897 l 1.60141,0.34316 -15.099,74.35104 -27.79585,4.80422 m 319.8239,-41.63659 5.49054,-57.42189 q 4.23229,1.83019 9.95161,6.06248 8.12141,6.06247 14.75582,7.89265 l -3.77474,41.29344 -26.42323,2.17332 m 298.77684,-15.6709 -0.34316,-24.36428 q 7.89265,0 21.16145,-9.9516 l 2.40211,33.85834 -23.2204,0.45754 m 313.1895,3.54597 -2.1734,-34.0871 q 7.7783,3.4316 14.7559,4.11791 l 3.889,-0.22878 2.9741,31.22744 -19.4456,-1.02947 m 305.5256,26.5376 -13.4976,-64.62822 8.3502,-1.48702 q 4.2323,0 7.0919,3.20281 h 0.1145 q 3.5459,3.66036 8.007,4.80423 l 14.0695,61.19662 -24.1355,-3.08842 m 313.3039,53.53276 -41.751,-125.4817 q 4.0035,0.91508 9.8372,3.20281 h 0.1144 l 7.8927,2.85966 44.8393,124.10907 -20.9326,-4.68984"
       inkscape:connector-curvature="0"
       style="opacity:1;fill:#726861;fill-rule:evenodd;stroke:none;stroke-width:2.28772449" />
    <path
       id="path1037"
       d="M 1972.8128,94.155552 Q 954.54662,169.65052 18.752866,99.302934 V 84.661498 l 2.173337,0.68632 Q 978.45333,142.76975 1969.61,79.742896 h 0.3431 q 1.7159,-0.11439 2.8597,-1.258252 v 15.670908"
       inkscape:connector-curvature="0"
       style="opacity:1;fill:#f9c7a2;fill-rule:evenodd;stroke:none;stroke-width:2.28772449" />
    <path
       id="path1039"
       d="m 1930.9473,-120.08981 38.6627,-0.45754 h 3.2028 v 57.078682 l -167.4614,5.719315 -6.0625,3.088425 q -35.5741,17.157932 -87.963,17.157932 -46.8984,0 -87.1624,-11.66739 l -10.4091,-3.317194 q -290.7698,6.977544 -575.9346,7.549478 h -3.7748 v 1.372636 q -39.00571,14.298279 -89.44998,14.298279 -51.24504,0 -86.93354,-16.014077 -289.96909,-1.487023 -574.10449,-9.837207 h -2.5165 v 1.029478 q -49.52923,19.788811 -93.33916,19.788811 -38.43378,0 -65.54331,-21.618985 l -5.49054,-4.575456 -97.914614,-3.774741 v -59.938356 l 17.501093,0.34317 q 967.936241,16.47162 1894.693341,3.77474"
       inkscape:connector-curvature="0"
       style="opacity:1;fill:#d5b996;fill-rule:evenodd;stroke:none;stroke-width:2.28772449" />
    <path
       id="path1041"
       d="M 1974.1855,-0.32747301 2013.0768,-2.043265"
       inkscape:connector-curvature="0"
       style="opacity:1;fill:none;stroke:#000000;stroke-width:9.15089798;stroke-linecap:round;stroke-linejoin:round" />
    <path
       id="path1043"
       d="M 17.837776,74.595512 Q 977.76702,136.82166 1968.4661,69.333745"
       inkscape:connector-curvature="0"
       style="opacity:1;fill:none;stroke:#000000;stroke-width:9.15089798;stroke-linecap:round;stroke-linejoin:round" />
  </g>
  <g
     transform="matrix(2.3543933,0,0,2.3543933,-9.0682954,-61.686172)"
     id="g82"
     style="opacity:1">
    <path
       d="M 258.6,111.1 247.35,109.6 248.05,4 h 9.85 q -0.75,21.65 -0.75,62.05 0,15.95 0.8,33.05 l 0.65,12 M 562.1,4 h 11 l 0.65,108.1 q -4.8,2 -10.25,1.25 V 53.1 L 562.1,4"
       id="path2"
       inkscape:connector-curvature="0"
       style="fill:#ae9f8f;fill-rule:evenodd;stroke:none" />
    <path
       d="m 263.65,0 q 0.85,0 1.45,0.6 0.55,0.55 0.55,1.4 v 111.75 l -0.3,1.1 -0.85,0.7 -1.1,0.2 -18.3,-2.4 q -0.75,-0.1 -1.25,-0.65 -0.5,-0.6 -0.5,-1.35 L 244.05,2 q 0,-0.85 0.6,-1.4 0.6,-0.6 1.4,-0.6 h 17.6 m -5.75,4 h -9.85 l -0.7,105.6 11.25,1.5 3.05,0.4 V 4 h -3.75 m 304.2,0 h -2.65 l -0.65,108.15 q 2.4,0.85 4.7,1.2 5.45,0.75 10.25,-1.25 L 573.1,4 h -11 m -6.65,-2 q 0,-0.85 0.6,-1.4 0.6,-0.6 1.4,-0.6 h 17.6 q 0.8,0 1.4,0.6 0.6,0.55 0.6,1.4 l 0.7,111.35 -0.3,1.05 -0.8,0.75 q -6.15,3.15 -13.15,2.25 -3.6,-0.5 -7.45,-2.05 l -0.9,-0.75 q -0.35,-0.5 -0.35,-1.1 L 555.45,2"
       id="path4"
       inkscape:connector-curvature="0"
       style="fill:#000000;fill-rule:evenodd;stroke:none" />
    <path
       d="m 257.9,4 h 3.75 v 107.5 l -3.05,-0.4 -0.65,-12 q -0.8,-17.1 -0.8,-33.05 0,-40.4 0.75,-62.05 m 305.6,109.35 q -2.3,-0.35 -4.7,-1.2 L 559.45,4 h 2.65 l 1.4,49.1 v 60.25"
       id="path6"
       inkscape:connector-curvature="0"
       style="fill:#bfb4a6;fill-rule:evenodd;stroke:none" />
    <path
       d="m 869.9,99.4 q 0.8,-0.05 1.4,0.55 0.6,0.55 0.65,1.4 0.05,0.8 -0.5,1.4 -0.6,0.6 -1.4,0.65 l -11.6,0.45 v 9.5 l 11.45,-0.45 q 0.8,-0.05 1.4,0.55 0.6,0.55 0.65,1.4 0.05,0.8 -0.5,1.4 -0.6,0.6 -1.4,0.65 l -11.6,0.45 V 226.9 l 11.75,-0.45 q 0.8,-0.05 1.4,0.55 0.6,0.55 0.65,1.4 0.05,0.8 -0.5,1.4 -0.6,0.6 -1.4,0.65 l -11.9,0.5 v 10.4 l 11.75,-0.45 q 0.8,-0.05 1.4,0.55 0.6,0.55 0.65,1.4 0.05,0.8 -0.5,1.4 -0.6,0.6 -1.4,0.65 l -13.75,0.55 h -0.05 -0.1 l -65.1,2.25 -74.15,2.1 q -125.4,3.15 -248.4,3.6 -57.6,0.2 -114.65,-0.2 Q 226.8,252.35 102,248.5 L 44,246.55 2.25,244.9 Q 1.4,244.85 0.85,244.3 0.3,243.7 0.3,242.9 L 0.35,228.8 0.3,228.5 V 116 Q 0,115.5 0,114.9 0,114.3 0.3,113.85 V 102.5 Q 0,102 0,101.4 0,100.55 0.6,100 1.15,99.4 2,99.4 l 0.65,0.05 53.05,2.05 44.9,1.5 q 133.95,4.1 270.95,4.85 l 82,0.1 q 129.8,-0.3 262.3,-3.65 l 57.2,-1.6 83.25,-2.8 h 0.15 l 13.45,-0.5 m -15.45,29.35 V 117.5 l -32.25,1.15 -0.35,11.25 -0.1,4.7 v 0.05 q 0,12.65 1.3,24.55 1.3,12.1 1.3,19.4 0,10.05 -3.4,32.2 -0.8,5.15 -1.3,9.55 -0.5,4.35 -0.7,7.95 l 35.5,-1.2 v -8 -90.35 m -79.95,-12.55 22,-0.7 24.25,-0.8 33.7,-1.2 V 104 l -81.05,2.7 -57.6,1.6 q -132.5,3.35 -262.35,3.65 l -81.8,-0.1 Q 234.7,111.1 100.75,107 L 55.4,105.5 4.3,103.55 V 113 l 24.65,0.95 25.35,0.95 h 0.1 l 46.75,1.55 41.25,1.2 24.25,0.65 28.6,0.65 25.2,0.5 26.85,0.5 32,0.5 27.35,0.35 28.4,0.25 29.05,0.25 7.85,0.05 81.25,0.1 12.5,-0.05 24.85,-0.1 26.6,-0.2 27.6,-0.25 28.8,-0.3 29.7,-0.45 26.9,-0.45 24.9,-0.45 27.7,-0.6 32.95,-0.8 58.8,-1.6 m 20.7,14.55 -0.1,-11.2 -20.1,0.65 -4.6,0.1 0.3,0.9 0.2,7.9 v 0.05 l 0.05,2.35 0.1,12.95 q 0,11.25 1.3,20.15 1.3,9 1.3,17.3 0,6.85 -2.2,28.95 l -1.05,11.05 -0.7,8 24.05,-0.75 h 0.05 v -0.35 l 0.4,-7.65 0.35,-5.6 0.5,-8.95 0.2,-8.6 v -0.05 -39.55 l -0.05,-27.65 m -112.15,93.45 -0.75,7.95 34.5,-0.8 49.85,-1.35 0.7,-8 1.1,-11.45 q 2.2,-21.9 2.2,-28.65 0,-8.1 -1.25,-16.85 -1.35,-9.05 -1.35,-20.6 l -0.1,-12.85 -0.05,-2.4 -0.2,-8 q 0,-0.45 0.25,-0.8 l -52.3,1.45 -31.6,0.75 -0.25,2.05 v 0.05 q -0.55,4.9 -0.6,9.1 l -0.05,1.35 q 0,6.1 0.75,34.85 v 0.05 l 0.7,30.35 q 0,6 -1.25,20.2 l -0.3,3.6 m 135.8,-94.2 0.35,-11.25 -21.1,0.7 0.1,11.2 0.05,27.75 v 39.55 q 0.05,5.75 -0.7,17.8 l -0.35,5.3 -0.4,8 19.15,-0.65 q 0.15,-3.6 0.65,-7.95 l 1.4,-10.1 q 3.35,-21.8 3.35,-31.75 0,-7.2 -1.3,-19.1 -1.3,-12.05 -1.3,-24.9 l 0.1,-4.6 m -26.6,111.4 62.2,-2.15 v -8.15 l -37,1.25 -22.05,0.75 h -0.05 l -2.05,0.05 -25.2,0.8 h -0.05 l -51.15,1.4 -36.25,0.85 -27.25,0.6 -24.55,0.45 -26.2,0.4 -29.15,0.45 -24.95,0.3 -26.55,0.25 h -0.05 l -25.4,0.15 -29.35,0.15 h -0.25 q -51.6,0.15 -102.75,-0.1 l -8.9,-0.05 -21.05,-0.2 -26.45,-0.25 -28.7,-0.35 -32.7,-0.5 -27.7,-0.5 h -0.05 l -28,-0.6 -24.45,-0.6 -26.55,-0.65 -37.65,-1.1 -52.35,-1.75 -7.6,-0.3 -12.8,-0.45 -24.95,-1 v 8.2 l 38.7,1.5 59,2 q 124.9,3.85 252.4,4.7 56.6,0.4 113.75,0.2 123.25,-0.45 248.95,-3.6 l 75.15,-2.15 m -164.2,-106.5 0.6,-11.2 -24.1,0.4 -0.15,1.15 q -0.55,5.15 -0.6,10.05 l -0.05,1.75 0.35,88.65 v 7.95 l 23.3,-0.35 0.3,-8 0.1,-3.4 0.5,-21.9 q 0,-8.6 -1.25,-15.7 -1.35,-7.4 -1.35,-13 0,-5 1.5,-24.45 l 0.85,-11.95 m 24.1,-0.45 q 0.05,-5.25 0.95,-10.75 v -0.1 l 0.05,-0.35 h -0.05 l -21.45,0.4 -0.55,11.2 -0.9,12.25 q -1.5,19.3 -1.5,24.2 0,5.4 1.3,12.45 1.3,7.35 1.3,16.25 l -0.5,22 -0.1,3.25 -0.3,8 21.5,-0.4 0.1,-8 0.25,-17.2 q 0.45,-23.9 0.3,-38 l -0.4,-33.15 v -2.05 m 28,-0.55 q 0.1,-4.45 0.65,-9.55 l 0.2,-1.7 -24.75,0.55 -0.2,1 v -0.05 q -0.85,5.25 -0.9,10.25 v 2.05 l 0.4,33.15 q 0.15,14.15 -0.3,38.1 l -0.25,17.1 -0.1,8 24.4,-0.55 0.7,-8 0.35,-3.9 q 1.25,-14.05 1.25,-19.95 l -0.7,-30.3 q -0.75,-28.85 -0.75,-34.95 v -1.25 m -79.35,1.45 q 0.05,-5.05 0.6,-10.4 l 0.1,-0.8 -26.45,0.4 -0.25,11.2 -0.1,4.75 q -0.4,18.2 -0.4,33.2 l 0.25,28.4 0.3,24 0.1,8 26.15,-0.4 v -7.95 l -0.35,-88.7 0.05,-1.7 m -29,0.45 0.25,-11.2 -26,0.25 q -0.45,3.85 -0.45,9.9 l 0.05,1.35 1.7,43.5 q 1.2,28.55 2.15,46.85 l 0.4,7.95 22.05,-0.25 -0.1,-8 -0.3,-24 -0.25,-28.45 q 0,-15 0.4,-33.25 l 0.1,-4.65 m -25.3,90.65 q -0.95,-18.25 -2.15,-46.7 l -1.7,-43.65 -0.05,-1.35 q 0,-5.95 0.4,-9.85 l -24.5,0.2 -0.5,6.25 0.1,5 q 0.2,5.3 0.95,9.4 0.6,3.6 2.3,10.45 l 0.05,0.05 q 3.35,15.9 3.35,49.35 l -0.75,19.85 -0.05,1.2 -0.4,8 23.35,-0.25 -0.4,-7.95 m -57.05,-89.9 -0.35,-11.25 -21.5,0.1 0.1,1.15 v 0.1 l -0.55,10 q -1.3,22.25 -1.3,24.35 0,8.2 1.7,22.7 1.7,14.7 1.7,18.9 l -0.6,24.4 -0.15,5.6 0.45,1.3 0.05,1.05 25.85,-0.15 -0.55,-7.9 q -1.55,-22.2 -3.15,-53.05 -1.2,-22.85 -1.7,-37.3 m -25.3,0.1 0.55,-10.1 v -0.05 l -0.15,-1.1 -11.45,0.05 -81,-0.1 -6.55,-0.05 -0.35,10.25 0.05,1 0.35,10.55 q 0.4,12.7 0.4,20.3 v 20.05 7.7 l -0.05,31.75 v 1.3 l -0.15,6.65 q 49.4,0.25 99.2,0.1 l -0.05,-1.05 q 0,-0.8 0.55,-1.35 l 0.15,-5.05 0.6,-24.95 q 0,-4.15 -1.7,-18.5 -1.7,-14.75 -1.7,-23.05 0,-2.1 1.3,-24.35 m 50.95,-0.3 -0.1,-5.15 v -0.1 l 0.5,-5.95 -23.4,0.15 0.35,11.2 q 0.5,14.45 1.7,37.2 1.6,30.95 3.15,53.15 l 0.55,7.95 22.7,-0.15 0.4,-7.95 0.05,-1.4 0.75,-19.7 q 0,-33.05 -3.3,-48.75 v 0.05 q -1.7,-6.95 -2.35,-10.6 v -0.05 q -0.75,-4.3 -1,-9.9 M 363,201.8 v -6.65 -27.75 q 0,-7.6 -0.4,-20.2 l -0.35,-10.7 -0.05,-1 v -0.05 l 0.35,-10.15 -26.15,-0.2 -1.1,11.2 -0.45,4.25 q -1.7,16.95 -1.7,22.45 l 3.35,55.05 -0.2,8.6 -0.4,8 20,0.15 6.9,0.05 0.15,-6.7 v -1.3 L 363,201.8 M 304.85,136 305.05,124.8 281,124.5 q 0.35,3.45 0.35,8.25 l -0.1,2.95 -1,14.9 v 0.05 q -1.15,15.15 -1.15,19.55 0,7 0.75,21.5 0.75,14.6 0.75,21.9 v 12.45 8 l 25.65,0.3 -0.25,-7.95 -0.6,-28.35 q -0.6,-34.55 -0.6,-56.55 l 0.05,-5.5 m 27.4,0.3 1.15,-11.25 -25.35,-0.2 -0.2,11.2 -0.05,5.45 q 0,22 0.6,56.5 l 0.6,28.4 0.25,8 23.65,0.2 0.4,-7.95 0.2,-8.6 -3.35,-54.85 v -0.1 q 0,-5.55 1.7,-22.85 l 0.4,-3.95 m -113.9,-1.65 0.15,-4.15 0.3,-7.05 -22.25,-0.45 -1.45,11.2 -1.35,9.4 q -3,20.6 -3,28.1 0,9.25 1.15,17.6 1.1,8.55 1.1,22.3 l -0.3,12.9 -0.4,7.95 25.1,0.55 0.65,-8 0.85,-11.25 q 1.65,-22.05 1.65,-30.7 0,-7.9 -1.25,-16.05 -1.35,-8.5 -1.35,-14.55 0,-7.05 0.4,-17.8 m 26.85,0.5 -0.05,-4.7 v -0.1 l 0.45,-6.4 -23.8,-0.45 -0.3,7.1 -0.15,4.1 q -0.4,10.7 -0.4,17.75 0,5.85 1.3,14.1 1.3,8.4 1.3,16.5 0,8.75 -1.65,30.9 l -0.85,11.1 -0.65,8 24.55,0.45 0.15,-8 0.25,-11.7 q 0.55,-24.8 0.55,-40.1 l -0.35,-22.55 -0.35,-16 m 33.05,0.5 0.1,-2.9 q 0,-4.85 -0.35,-8.3 l -29.35,-0.45 -0.5,6.55 0.05,4.65 0.35,15.85 v 0.05 l 0.35,22.6 q 0,15.3 -0.55,40.15 l -0.2,11.7 -0.2,8 29.65,0.45 v -8 -12.4 q 0,-7.3 -0.75,-21.75 -0.75,-14.65 -0.75,-21.65 0,-4.5 1.15,-19.8 l 1,-14.75 m -112.9,-2.15 -0.2,-11.25 -21.45,-0.55 q -0.35,3.85 -0.65,11.2 l -1,29.7 q -0.85,33.9 -0.85,60.6 v 8 l 23.7,0.6 0.5,-7.3 0.05,-0.65 q 1.05,-13.6 1.05,-27.95 l -0.7,-40.75 -0.45,-21.65 m -25.3,-0.65 0.6,-11.25 -39.3,-1.1 -45.6,-1.55 -0.35,11.25 -3.75,90.2 -0.35,7.95 50.75,1.7 36.15,1.05 v -7.95 q 0,-26.75 0.85,-60.65 l 1,-29.65 m 52.05,1.25 1.4,-11.2 -25.35,-0.55 0.2,11.2 0.45,21.55 0.7,40.8 q 0,14.35 -1,28 l -0.1,0.85 -0.5,7.1 21.4,0.55 0.4,-8 0.3,-12.8 q 0,-13.55 -1.05,-21.9 -1.2,-8.55 -1.2,-18 0,-7.6 3.05,-28.55 l 1.3,-9.05 m -161.8,85.5 0.35,7.55 v 0.05 l 0.05,0.4 11.05,0.4 6.55,0.25 0.35,-7.95 3.75,-90.2 0.15,-4.75 0.2,-6.5 -22.25,-0.8 0.3,4.3 v 0.05 l 0.3,6.9 0.25,15.55 -0.55,34.7 q -0.55,27.1 -0.55,38.5 l 0.05,1.55 M 28.1,129.2 27.8,122.55 27.5,117.9 4.3,117 v 11.25 90.35 7.95 l 23.35,0.95 v -0.15 l -0.35,-7.85 -0.05,-1.45 q 0,-11.4 0.55,-38.55 L 28.35,144.85 28.1,129.2"
       id="path8"
       inkscape:connector-curvature="0"
       style="fill:#000000;fill-rule:evenodd;stroke:none" />
    <path
       d="m 773.4,106.7 81.05,-2.7 v 9.5 l -33.7,1.2 -24.25,0.8 -22,0.7 -0.4,-3.25 -0.7,-6.25 m -57.7,11.1 -32.95,0.8 -27.7,0.6 -24.9,0.45 -26.9,0.45 -29.7,0.45 -28.8,0.3 -27.6,0.25 -26.6,0.2 -24.85,0.1 -12.5,0.05 0.25,-9.5 q 129.85,-0.3 262.35,-3.65 l -0.1,9.5 m -343.75,3.55 -7.85,-0.05 -29.05,-0.25 -28.4,-0.25 -27.35,-0.35 -32,-0.5 -26.85,-0.5 -25.2,-0.5 -28.6,-0.65 -24.25,-0.65 -41.25,-1.2 -0.4,-9.45 q 133.95,4.1 270.9,4.85 l 0.3,9.5 M 54.4,114.9 H 54.3 L 28.95,113.95 4.3,113 v -9.45 l 51.1,1.95 -1.1,9.4 h 0.1 m 737.85,126.5 0.7,-5.5 0.35,-2.75 2.05,-0.05 h 0.05 l 22.05,-0.75 37,-1.25 v 8.15 l -62.2,2.15 m -75.35,-6.05 0.2,8.2 q -125.7,3.15 -248.95,3.6 l -0.95,-8.2 29.35,-0.15 25.4,-0.15 H 522 l 26.55,-0.25 24.95,-0.3 29.15,-0.45 26.2,-0.4 24.55,-0.45 27.25,-0.6 36.25,-0.85 m -361.6,3.45 q -0.65,4.35 -0.9,8.15 -127.5,-0.85 -252.4,-4.7 v -7.2 -1 l 37.65,1.1 26.55,0.65 24.45,0.6 28,0.6 h 0.05 l 27.7,0.5 32.7,0.5 28.7,0.35 26.45,0.25 21.05,0.2 M 43,240.25 4.3,238.75 v -8.2 l 24.95,1 12.8,0.45 0.95,8.25"
       id="path10"
       inkscape:connector-curvature="0"
       style="fill:#775f4c;fill-rule:evenodd;stroke:none" />
    <path
       d="m 854.45,128.75 v 90.35 l -34.8,1.25 q 0.5,-4.4 1.3,-9.55 3.4,-22.15 3.4,-32.2 0,-7.3 -1.3,-19.4 -1.3,-11.9 -1.3,-24.55 v -0.05 l 0.1,-4.7 32.6,-1.15"
       id="path12"
       style="fill:url(#gradient0);fill-rule:evenodd;stroke:none"
       inkscape:connector-curvature="0" />
    <path
       d="m 818.85,130 -0.1,4.6 q 0,12.85 1.3,24.9 1.3,11.9 1.3,19.1 0,9.95 -3.35,31.75 l -1.4,10.1 -19.4,0.6 0.35,-5.3 q 0.75,-12.05 0.7,-17.8 V 158.4 L 798.2,130.65 818.85,130"
       id="path14"
       style="fill:url(#gradient1);fill-rule:evenodd;stroke:none"
       inkscape:connector-curvature="0" />
    <path
       d="m 795.2,130.75 0.05,27.65 v 39.55 0.05 l -0.2,8.6 q -0.7,-14.55 -6.05,-31.9 l -5.45,-16.65 q -3.25,-10 -4.95,-17.4 -1,-4.35 -1.85,-9.3 l 18.45,-0.6 m -1.4,98.05 v 0.35 h -0.05 l 0.05,-0.35"
       id="path16"
       style="fill:url(#gradient2);fill-rule:evenodd;stroke:none"
       inkscape:connector-curvature="0" />
    <path
       d="m 683.05,224.2 0.3,-3.6 q 1.25,-14.2 1.25,-20.2 l -0.7,-30.35 V 170 q -0.75,-28.75 -0.75,-34.85 l 0.05,-1.35 32.3,-0.75 -0.3,26.35 q 0,26.6 1.1,57 l 0.25,7 -33.5,0.8"
       id="path18"
       style="fill:url(#gradient3);fill-rule:evenodd;stroke:none"
       inkscape:connector-curvature="0" />
    <path
       d="m 631.1,134.85 21.05,-0.4 v 2.05 l 0.4,33.15 q 0.15,14.1 -0.3,38 l -0.25,17.2 -21.3,0.4 0.1,-3.25 0.5,-22 q 0,-8.9 -1.3,-16.25 -1.3,-7.05 -1.3,-12.45 0,-4.9 1.5,-24.2 l 0.9,-12.25"
       id="path20"
       style="fill:url(#gradient4);fill-rule:evenodd;stroke:none"
       inkscape:connector-curvature="0" />
    <path
       d="m 628.05,134.9 -0.85,11.95 q -1.5,19.45 -1.5,24.45 0,5.6 1.35,13 1.25,7.1 1.25,15.7 l -0.5,21.9 -0.1,3.4 -23.6,0.4 -0.35,-88.65 0.05,-1.75 24.25,-0.4"
       id="path22"
       style="fill:url(#gradient5);fill-rule:evenodd;stroke:none"
       inkscape:connector-curvature="0" />
    <path
       d="m 680.15,133.9 v 1.25 q 0,6.1 0.75,34.95 l 0.7,30.3 q 0,5.9 -1.25,19.95 l -0.35,3.9 -25,0.55 0.25,-17.1 q 0.45,-23.95 0.3,-38.1 l -0.4,-33.15 v -2.05 l 25,-0.5"
       id="path24"
       style="fill:url(#gradient6);fill-rule:evenodd;stroke:none"
       inkscape:connector-curvature="0" />
    <path
       d="m 542.65,136.1 1.7,43.65 q 1.2,28.45 2.15,46.7 l -22.55,0.2 0.05,-1.2 0.75,-19.85 q 0,-33.45 -3.35,-49.35 l -0.05,-0.05 q -1.7,-6.85 -2.3,-10.45 -0.75,-4.1 -0.95,-9.4 l 24.55,-0.25"
       id="path26"
       style="fill:url(#gradient7);fill-rule:evenodd;stroke:none"
       inkscape:connector-curvature="0" />
    <path
       d="m 571.8,135.8 -0.1,4.65 q -0.4,18.25 -0.4,33.25 l 0.25,28.45 0.3,24 -22.35,0.3 q -0.95,-18.3 -2.15,-46.85 l -1.7,-43.5 26.15,-0.3"
       id="path28"
       style="fill:url(#gradient8);fill-rule:evenodd;stroke:none"
       inkscape:connector-curvature="0" />
    <path
       d="m 600.8,135.35 -0.05,1.7 0.35,88.7 -26.25,0.35 -0.3,-24 -0.25,-28.4 q 0,-15 0.4,-33.2 l 0.1,-4.75 26,-0.4"
       id="path30"
       style="fill:url(#gradient9);fill-rule:evenodd;stroke:none"
       inkscape:connector-curvature="0" />
    <path
       d="m 464.15,136.65 q -1.3,22.25 -1.3,24.35 0,8.3 1.7,23.05 1.7,14.35 1.7,18.5 l -0.6,24.95 -0.1,-0.5 -1.15,-6.95 q -1.4,-7.65 -5.45,-25.2 -3.1,-13.4 -4.35,-24.05 -1.6,-14 -1.75,-34.15 h 11.3 M 366,187.45 V 167.4 q 0,-7.6 -0.4,-20.3 l -0.35,-10.55 h 6.85 q -0.8,23.35 -6.1,50.9"
       id="path32"
       style="fill:url(#gradient10);fill-rule:evenodd;stroke:none"
       inkscape:connector-curvature="0" />
    <path
       d="m 489.45,136.55 q 0.5,14.45 1.7,37.3 1.6,30.85 3.15,53.05 l -25.65,0.1 0.6,-24.4 q 0,-4.2 -1.7,-18.9 -1.7,-14.5 -1.7,-22.7 0,-2.1 1.3,-24.35 l 22.3,-0.1"
       id="path34"
       style="fill:url(#gradient11);fill-rule:evenodd;stroke:none"
       inkscape:connector-curvature="0" />
    <path
       d="m 515.1,136.35 q 0.25,5.6 1,9.9 v 0.05 q 0.65,3.65 2.35,10.6 v -0.05 q 3.3,15.7 3.3,48.75 l -0.75,19.7 -0.05,1.4 -23.65,0.15 q -1.55,-22.2 -3.15,-53.15 -1.2,-22.75 -1.7,-37.2 l 22.65,-0.15"
       id="path36"
       style="fill:url(#gradient12);fill-rule:evenodd;stroke:none"
       inkscape:connector-curvature="0" />
    <path
       d="m 362.25,136.5 0.35,10.7 q 0.4,12.6 0.4,20.2 v 27.75 6.65 l -5.6,25.05 -21.1,-0.2 0.2,-8.6 -3.35,-55.05 q 0,-5.5 1.7,-22.45 l 0.45,-4.25 26.95,0.2"
       id="path38"
       style="fill:url(#gradient13);fill-rule:evenodd;stroke:none"
       inkscape:connector-curvature="0" />
    <path
       d="m 332.25,136.3 -0.4,3.95 q -1.7,17.3 -1.7,22.85 v 0.1 l 3.35,54.85 -0.2,8.6 L 309,226.4 308.4,198 q -0.6,-34.5 -0.6,-56.5 l 0.05,-5.45 24.4,0.25"
       id="path40"
       style="fill:url(#gradient14);fill-rule:evenodd;stroke:none"
       inkscape:connector-curvature="0" />
    <path
       d="m 304.85,136 -0.05,5.5 q 0,22 0.6,56.55 l 0.6,28.35 -25.4,-0.35 V 213.6 q 0,-7.3 -0.75,-21.9 -0.75,-14.5 -0.75,-21.5 0,-4.4 1.15,-19.55 v -0.05 l 1,-14.9 23.6,0.3"
       id="path42"
       style="fill:url(#gradient15);fill-rule:evenodd;stroke:none"
       inkscape:connector-curvature="0" />
    <path
       d="m 218.35,134.65 q -0.4,10.75 -0.4,17.8 0,6.05 1.35,14.55 1.25,8.15 1.25,16.05 0,8.65 -1.65,30.7 L 218.05,225 192.7,224.5 193,211.6 q 0,-13.75 -1.1,-22.3 -1.15,-8.35 -1.15,-17.6 0,-7.5 3,-28.1 l 1.35,-9.4 23.25,0.45"
       id="path44"
       style="fill:url(#gradient16);fill-rule:evenodd;stroke:none"
       inkscape:connector-curvature="0" />
    <path
       d="m 245.2,135.15 0.35,16 0.35,22.55 q 0,15.3 -0.55,40.1 l -0.25,11.7 -24.05,-0.45 0.85,-11.1 q 1.65,-22.15 1.65,-30.9 0,-8.1 -1.3,-16.5 -1.3,-8.25 -1.3,-14.1 0,-7.05 0.4,-17.75 l 23.85,0.45"
       id="path46"
       style="fill:url(#gradient17);fill-rule:evenodd;stroke:none"
       inkscape:connector-curvature="0" />
    <path
       d="m 278.25,135.65 -1,14.75 q -1.15,15.3 -1.15,19.8 0,7 0.75,21.65 0.75,14.45 0.75,21.75 V 226 l -29.45,-0.45 0.2,-11.7 Q 248.9,189 248.9,173.7 l -0.35,-22.6 v -0.05 l -0.35,-15.85 30.05,0.45"
       id="path48"
       style="fill:url(#gradient18);fill-rule:evenodd;stroke:none"
       inkscape:connector-curvature="0" />
    <path
       d="m 140.05,132.85 -1,29.65 q -0.85,33.9 -0.85,60.65 l -36.1,-1.05 0.3,-24.7 0.35,-27.6 q 0,-15.15 -0.9,-38.05 l 38.2,1.1"
       id="path50"
       style="fill:url(#gradient19);fill-rule:evenodd;stroke:none"
       inkscape:connector-curvature="0" />
    <path
       d="m 165.35,133.5 0.45,21.65 0.7,40.75 q 0,14.35 -1.05,27.95 L 141.2,223.2 q 0,-26.7 0.85,-60.6 l 1,-29.7 22.3,0.6"
       id="path52"
       style="fill:url(#gradient20);fill-rule:evenodd;stroke:none"
       inkscape:connector-curvature="0" />
    <path
       d="m 192.1,134.1 -1.3,9.05 q -3.05,20.95 -3.05,28.55 0,9.45 1.2,18 1.05,8.35 1.05,21.9 l -0.3,12.8 -21.2,-0.5 q 1,-13.65 1,-28 l -0.7,-40.8 -0.45,-21.55 23.75,0.55"
       id="path54"
       style="fill:url(#gradient21);fill-rule:evenodd;stroke:none"
       inkscape:connector-curvature="0" />
    <path
       d="m 30.3,219.6 -0.05,-1.55 q 0,-11.4 0.55,-38.5 l 0.55,-34.7 -0.25,-15.55 20.6,0.75 -3,16 q -7.15,39.1 -7.2,74 L 30.3,219.6"
       id="path56"
       style="fill:url(#gradient22);fill-rule:evenodd;stroke:none"
       inkscape:connector-curvature="0" />
    <path
       d="m 28.1,129.2 0.25,15.65 -0.55,34.65 q -0.55,27.15 -0.55,38.55 l 0.05,1.45 -23,-0.9 v -90.35 l 23.8,0.95"
       id="path58"
       style="fill:url(#gradient23);fill-rule:evenodd;stroke:none"
       inkscape:connector-curvature="0" />
    <path
       d="m 821.85,129.9 0.35,-11.25 32.25,-1.15 v 11.25 l -32.6,1.15 m 32.6,89.2 v 8 l -35.5,1.2 q 0.2,-3.6 0.7,-7.95 l 34.8,-1.25 m -60.7,10.05 -24.05,0.75 0.7,-8 1.05,-11.05 q 2.2,-22.1 2.2,-28.95 0,-8.3 -1.3,-17.3 -1.3,-8.9 -1.3,-20.15 l -0.1,-12.95 -0.05,-2.35 v -0.05 l -0.2,-7.9 -0.3,-0.9 4.6,-0.1 20.1,-0.65 0.1,11.2 -18.45,0.6 q 0.85,4.95 1.85,9.3 1.7,7.4 4.95,17.4 L 789,174.7 q 5.35,17.35 6.05,31.9 l -0.5,8.95 -0.35,5.6 -0.4,7.65 -0.05,0.35 M 683.2,133.8 q 0.05,-4.2 0.6,-9.1 v -0.05 l 0.25,-2.05 31.6,-0.75 52.3,-1.45 q -0.25,0.35 -0.25,0.8 l 0.2,8 0.05,2.4 0.1,12.85 q 0,11.55 1.35,20.6 1.25,8.75 1.25,16.85 0,6.75 -2.2,28.65 l -1.1,11.45 -0.7,8 -49.85,1.35 -34.5,0.8 0.75,-7.95 33.5,-0.8 -0.25,-7 q -1.1,-30.4 -1.1,-57 l 0.3,-26.35 -32.3,0.75 m 115,-3.15 -0.1,-11.2 21.1,-0.7 -0.35,11.25 -20.65,0.65 m 18.4,89.8 q -0.5,4.35 -0.65,7.95 l -19.15,0.65 0.4,-8 19.4,-0.6 M 603.8,135.3 q 0.05,-4.9 0.6,-10.05 l 0.15,-1.15 24.1,-0.4 -0.6,11.2 -24.25,0.4 m 23.9,90 -0.3,8 -23.3,0.35 v -7.95 l 23.6,-0.4 m 25.4,-101.7 v 0.1 q -0.9,5.5 -0.95,10.75 l -21.05,0.4 0.55,-11.2 21.45,-0.4 v 0.35 m -1.1,101.25 -0.1,8 -21.5,0.4 0.3,-8 21.3,-0.4 m 3.15,-90.45 q 0.05,-5 0.9,-10.25 v 0.05 l 0.2,-1 24.75,-0.55 -0.2,1.7 q -0.55,5.1 -0.65,9.55 l -25,0.5 m 24.85,89.85 -0.7,8 -24.4,0.55 0.1,-8 25,-0.55 m -105.2,-88.5 0.25,-11.2 26.45,-0.4 -0.1,0.8 q -0.55,5.35 -0.6,10.4 l -26,0.4 m 26.3,90 v 7.95 l -26.15,0.4 -0.1,-8 26.25,-0.35 m -55.45,-89.65 -0.05,-1.35 q 0,-6.05 0.45,-9.9 l 26,-0.25 -0.25,11.2 -26.15,0.3 m 26.2,90.05 0.1,8 -22.05,0.25 -0.4,-7.95 22.35,-0.3 m -25.35,0.3 0.4,7.95 -23.35,0.25 0.4,-8 22.55,-0.2 m -28.4,-90.1 -0.1,-5 0.5,-6.25 24.5,-0.2 q -0.4,3.9 -0.4,9.85 l 0.05,1.35 -24.55,0.25 m -50.95,0.3 0.55,-10 v -0.1 l -0.1,-1.15 21.5,-0.1 0.35,11.25 -22.3,0.1 m 27.15,90.25 0.55,7.9 -25.85,0.15 -0.05,-1.05 -0.45,-1.3 0.15,-5.6 25.65,-0.1 m -129.05,-90.35 -0.05,-1 0.35,-10.25 6.55,0.05 81,0.1 11.45,-0.05 0.15,1.1 v 0.05 l -0.55,10.1 h -11.3 q 0.15,20.15 1.75,34.15 1.25,10.65 4.35,24.05 4.05,17.55 5.45,25.2 l 1.15,6.95 0.1,0.5 -0.15,5.05 q -0.55,0.55 -0.55,1.35 l 0.05,1.05 q -49.8,0.15 -99.2,-0.1 l 0.15,-6.65 v -1.3 L 366,195.15 v -7.7 q 5.3,-27.55 6.1,-50.9 h -6.85 m 127.2,-0.05 -0.35,-11.2 23.4,-0.15 -0.5,5.95 v 0.1 l 0.1,5.15 -22.65,0.15 m 28.5,90.2 -0.4,7.95 -22.7,0.15 -0.55,-7.95 23.65,-0.15 M 363,201.8 l -0.05,25.05 v 1.3 l -0.15,6.7 -6.9,-0.05 -20,-0.15 0.4,-8 21.1,0.2 5.6,-25.05 m -27.7,-65.5 1.1,-11.2 26.15,0.2 -0.35,10.15 v 0.05 l 0.05,1 -26.95,-0.2 m -54.05,-0.6 0.1,-2.95 q 0,-4.8 -0.35,-8.25 l 24.05,0.3 -0.2,11.2 -23.6,-0.3 m 24.75,90.7 0.25,7.95 -25.65,-0.3 v -8 l 25.4,0.35 m 1.85,-90.35 0.2,-11.2 25.35,0.2 -1.15,11.25 -24.4,-0.25 m 25.45,90.6 -0.4,7.95 -23.65,-0.2 -0.25,-8 24.3,0.25 m -138.2,-92.45 1.45,-11.2 22.25,0.45 -0.3,7.05 -0.15,4.15 -23.25,-0.45 m 22.95,90.8 -0.65,8 -25.1,-0.55 0.4,-7.95 25.35,0.5 m 3.3,-90.3 0.15,-4.1 0.3,-7.1 23.8,0.45 -0.45,6.4 v 0.1 l 0.05,4.7 -23.85,-0.45 m 23.75,90.8 -0.15,8 -24.55,-0.45 0.65,-8 24.05,0.45 m 3.1,-90.3 -0.05,-4.65 0.5,-6.55 29.35,0.45 q 0.35,3.45 0.35,8.3 l -0.1,2.9 -30.05,-0.45 m 29.4,90.8 v 8 l -29.65,-0.45 0.2,-8 29.45,0.45 M 143.05,132.9 q 0.3,-7.35 0.65,-11.2 l 21.45,0.55 0.2,11.25 -22.3,-0.6 m 22.4,90.95 -0.05,0.65 -0.5,7.3 -23.7,-0.6 v -8 l 24.25,0.65 m -27.25,-0.7 v 7.95 l -36.15,-1.05 -50.75,-1.7 0.35,-7.95 3.75,-90.2 0.35,-11.25 45.6,1.55 39.3,1.1 -0.6,11.25 -38.2,-1.1 q 0.9,22.9 0.9,38.05 l -0.35,27.6 -0.3,24.7 36.1,1.05 m 30.15,-89.6 -0.2,-11.2 25.35,0.55 -1.4,11.2 -23.75,-0.55 m 21.35,90.85 -0.4,8 -21.4,-0.55 0.5,-7.1 0.1,-0.85 21.2,0.5 M 31.1,129.3 30.8,122.4 v -0.05 l -0.3,-4.3 22.25,0.8 -0.2,6.5 -0.15,4.75 -3.75,90.2 -0.35,7.95 -6.55,-0.25 -11.05,-0.4 -0.05,-0.4 v -0.05 l -0.35,-7.55 11.2,0.45 q 0.05,-34.9 7.2,-74 l 3,-16 -20.6,-0.75 M 4.3,128.25 V 117 l 23.2,0.9 0.3,4.65 0.3,6.65 -23.8,-0.95 m 23,91.25 0.35,7.85 v 0.15 L 4.3,226.55 v -7.95 l 23,0.9"
       id="path60"
       inkscape:connector-curvature="0"
       style="fill:#bf834d;fill-rule:evenodd;stroke:none" />
    <path
       d="m 774.5,116.2 -58.8,1.6 0.1,-9.5 57.6,-1.6 0.7,6.25 0.4,3.25 m -321.3,5.25 -81.25,-0.1 -0.3,-9.5 81.8,0.1 -0.25,9.5 m -352.05,-5 -46.75,-1.55 h -0.1 l 1.1,-9.4 45.35,1.5 0.4,9.45 m 692.15,116.7 -0.35,2.75 -0.7,5.5 -75.15,2.15 -0.2,-8.2 51.15,-1.4 h 0.05 l 25.2,-0.8 m -326.1,5.8 0.95,8.2 q -57.15,0.2 -113.75,-0.2 0.25,-3.8 0.9,-8.15 l 8.9,0.05 q 51.15,0.25 102.75,0.1 h 0.25 M 42.05,232 l 7.6,0.3 52.35,1.75 v 1 7.2 l -59,-2 -0.95,-8.25"
       id="path62"
       inkscape:connector-curvature="0"
       style="fill:#624e3e;fill-rule:evenodd;stroke:none" />
    <path
       d="m 716.95,5.45 h 20.3 q 5.2,118 0.05,215.15 l -0.05,0.3 -11.9,0.7 -8.4,-0.45 V 5.45 M 709,219.9 q -5.35,-1.15 -9.7,-3.05 -4,-101.75 3.05,-211.4 H 709 V 219.9 M 92.7,5.45 h 21.6 v 215.2 h -0.05 l -12.65,1 -8.05,-0.3 -0.85,-0.05 q -3.5,-95.05 0,-215.85 m 28.85,0 h 6.2 q 3.85,109.7 -0.1,211.45 -2.85,1.25 -6.1,2.15 V 5.45 m 270,0 h 14.35 v 217.8 q -7.25,-0.5 -14.35,-2.25 l -0.1,-3.75 q -2.9,-87.2 0.1,-211.8 m 27.3,0 h 13.05 q 4,115.75 0,215.75 l -13.05,2 V 5.45"
       id="path64"
       inkscape:connector-curvature="0"
       style="fill:#ad8c6f;fill-rule:evenodd;stroke:none" />
    <path
       d="m 382.5,260.25 -0.45,-1.4 q -1.3,-4.5 -1.3,-7.8 0,-14.15 4.8,-24.75 l 1.2,-2.45 4.8,1.3 q 6.5,1.5 13.2,2.05 -2.6,3.45 -4.75,10.85 -3.2,10.8 -3.45,24.95 -6.9,-1 -14.05,-2.75 m 38.05,-33.2 11.35,-1.8 1.75,-0.4 1.5,3.55 q 2.6,7.3 2.6,14.9 0,7.8 -1.65,14.35 l -1.3,4.35 -9.45,1.45 0.2,-2.15 0.45,-6.05 q 0,-11 -2.8,-20.7 -1.25,-4.4 -2.65,-7.5 m -329.1,-1.85 1.25,0.1 8.95,0.35 13.65,-1.1 2.05,3.35 q 2,4.45 2,10.75 0,3.2 -1.05,12 l -0.8,6.55 q -14.8,2.6 -28.9,1.4 -0.6,-4.95 -0.6,-11.55 0,-12.35 2.85,-20.3 l 0.6,-1.55 m 32.1,-2.55 6.1,-2.25 q 9.55,4.45 7,31.9 l -9.95,2.9 0.9,-4.5 q 0.75,-4.95 0.75,-11.85 0,-8.5 -3.1,-14 l -1.7,-2.2 m 588,34.4 -0.25,-0.85 q -1.45,-4.85 -1.45,-7.9 0,-12 3,-19.55 0.85,-2.15 1.9,-3.8 l 10.55,0.65 11.95,-0.7 2.75,-0.4 1.3,1.75 q 3.7,6.55 3.7,15.3 0,6.45 -3.2,13.25 l -1.6,3.15 q -14,1.4 -28.65,-0.9 m -4.85,-33.55 -1.65,2.45 q -3.85,6.95 -3.85,19.1 0,4.2 1.35,9.45 l 0.25,0.8 q -6.15,-1.45 -12.35,-3.5 -2.55,-26.7 6.4,-31.65 4.45,2.05 9.85,3.35"
       id="path66"
       inkscape:connector-curvature="0"
       style="fill:#705b44;fill-rule:evenodd;stroke:none" />
    <path
       d="M 716.95,5.45 H 709 702.35 q -7.05,109.65 -3.05,211.4 4.35,1.9 9.7,3.05 l 7.95,1.25 8.4,0.45 11.9,-0.7 0.15,-0.05 q 9.05,-1.25 17.15,-4.7 1.55,-96 -1.7,-210.7 h -15.6 -20.3 M 72.3,3.45 q 0,-0.85 0.6,-1.4 0.6,-0.6 1.4,-0.6 h 55.35 q 0.8,0 1.4,0.55 0.55,0.55 0.6,1.4 3.95,110.7 0,213.45 12.1,5.25 8.85,37.15 l -0.4,1.05 -0.95,0.65 q -6.8,2.3 -13.5,3.9 -18.7,4.45 -36.4,3.1 -15.9,-1.2 -30.95,-7 l -0.85,-0.65 q -0.35,-0.45 -0.4,-1 -3.5,-30.5 11.4,-37.85 Q 70.8,114.25 72.3,3.45 M 699.1,2 q 0.55,-0.55 1.35,-0.55 h 54.35 q 0.8,0 1.4,0.6 0.6,0.55 0.6,1.35 3.35,115.65 1.75,212.35 14.95,7.35 11.5,37.8 l -0.4,1 -0.85,0.65 q -15.3,5.9 -31.4,7.05 l -24.2,-0.9 -8.9,-1.6 Q 696.2,258 687.9,255.2 l -0.9,-0.65 q -0.4,-0.45 -0.45,-1.05 -3.25,-31.65 8.7,-37.1 Q 691.3,113.85 698.45,3.35 698.5,2.55 699.1,2 M 114.3,5.45 H 92.7 76.3 q -1.5,109.7 -3.85,210.75 9.45,4.05 20.25,5.1 l 0.85,0.05 8.05,0.3 12.65,-1 h 0.05 l 7.25,-1.6 q 3.25,-0.9 6.1,-2.15 3.95,-101.75 0.1,-211.45 h -6.2 -7.25 m 277.25,0 h -4.35 q -6.05,123.5 -6.9,211.95 4.2,1.65 8.55,2.9 l 2.7,0.7 q 7.1,1.75 14.35,2.25 6.4,0.45 12.95,-0.05 l 13.05,-2 0.25,-0.05 7.7,-2.05 q 4.45,-85.2 0.8,-213.65 H 431.9 418.85 405.9 391.55 m -8.25,-2.1 q 0.05,-0.8 0.65,-1.35 0.55,-0.55 1.35,-0.55 h 57.3 q 0.8,0 1.4,0.6 0.6,0.55 0.6,1.35 3.7,129.9 -0.75,215.85 14.75,6.7 12.5,39.75 l -0.4,1.1 -0.95,0.65 q -11.3,3.75 -21.9,5.6 -12.1,2.15 -23.35,1.8 l -13.1,-1.1 -12.15,-2.2 q -9.45,-2.15 -19.3,-5.6 l -0.9,-0.65 q -0.35,-0.45 -0.4,-1 -3.9,-33.15 12.35,-40.2 0.9,-89.25 7.05,-214.05 m -0.8,256.9 q 7.15,1.75 14.05,2.75 l 13.3,1.15 h 0.05 l 15.45,-0.7 9.45,-1.45 q 8.6,-1.7 17.65,-4.6 1.7,-28.95 -10.85,-34.7 l -7.95,2.15 -1.75,0.4 -11.35,1.8 -1.7,0.15 q -6.55,0.5 -12.95,0.1 l -1.15,-0.1 q -6.7,-0.55 -13.2,-2.05 l -4.8,-1.3 q -4.3,-1.25 -8.45,-2.9 -13.65,6.15 -10.6,34.95 7.5,2.55 14.8,4.35 m -267.2,-35.7 -13.65,1.1 -8.95,-0.35 -1.25,-0.1 q -11.2,-1.25 -21,-5.5 -12.3,6.5 -9.6,32.65 13.55,5.05 27.75,6.25 14.1,1.2 28.9,-1.4 l 9.2,-2 9.95,-2.9 q 2.55,-27.45 -7,-31.9 l -6.1,2.25 -1.9,0.55 -6.35,1.35 m 596.25,32.5 q 14.65,2.3 28.65,0.9 13.3,-1.35 26,-6.1 2.65,-25.7 -9.25,-32.4 Q 748.9,223 740,224.5 l -2.75,0.4 -11.95,0.7 -10.55,-0.65 -8.05,-1.45 q -5.4,-1.3 -9.85,-3.35 -8.95,4.95 -6.4,31.65 6.2,2.05 12.35,3.5 l 8.75,1.75"
       id="path68"
       inkscape:connector-curvature="0"
       style="fill:#000000;fill-rule:evenodd;stroke:none" />
    <path
       d="m 737.25,5.45 h 15.6 q 3.25,114.7 1.7,210.7 -8.1,3.45 -17.15,4.7 l -0.15,0.05 0.05,-0.3 Q 742.45,123.45 737.25,5.45 M 92.7,221.3 Q 81.9,220.25 72.45,216.2 74.8,115.15 76.3,5.45 h 16.4 q -3.5,120.8 0,215.85 m 298.85,-0.3 -2.7,-0.7 q -4.35,-1.25 -8.55,-2.9 0.85,-88.45 6.9,-211.95 h 4.35 q -3,124.6 -0.1,211.8 l 0.1,3.75 M 431.9,5.45 h 8.75 q 3.65,128.45 -0.8,213.65 l -7.7,2.05 -0.25,0.05 q 4,-100 0,-215.75"
       id="path70"
       inkscape:connector-curvature="0"
       style="fill:#987356;fill-rule:evenodd;stroke:none" />
    <path
       d="m 386.75,223.85 -1.2,2.45 q -4.8,10.6 -4.8,24.75 0,3.3 1.3,7.8 l 0.45,1.4 q -7.3,-1.8 -14.8,-4.35 -3.05,-28.8 10.6,-34.95 4.15,1.65 8.45,2.9 m 46.9,1 7.95,-2.15 q 12.55,5.75 10.85,34.7 -9.05,2.9 -17.65,4.6 l 1.3,-4.35 q 1.65,-6.55 1.65,-14.35 0,-7.6 -2.6,-14.9 l -1.5,-3.55 M 88.6,258.6 q -14.2,-1.2 -27.75,-6.25 -2.7,-26.15 9.6,-32.65 9.8,4.25 21,5.5 l -0.6,1.55 Q 88,234.7 88,247.05 q 0,6.6 0.6,11.55 m 651.6,-0.65 1.6,-3.15 q 3.2,-6.8 3.2,-13.25 0,-8.75 -3.7,-15.3 L 740,224.5 q 8.9,-1.5 16.95,-5.05 11.9,6.7 9.25,32.4 -12.7,4.75 -26,6.1"
       id="path72"
       inkscape:connector-curvature="0"
       style="fill:#574735;fill-rule:evenodd;stroke:none" />
    <path
       d="m 709,5.45 h 7.95 v 215.7 L 709,219.9 V 5.45 m -594.7,0 h 7.25 v 213.6 l -7.25,1.6 V 5.45"
       id="path74"
       inkscape:connector-curvature="0"
       style="fill:#c8b19d;fill-rule:evenodd;stroke:none" />
    <path
       d="m 115.3,224.55 6.35,-1.35 1.9,-0.55 1.7,2.2 q 3.1,5.5 3.1,14 0,6.9 -0.75,11.85 l -0.9,4.5 -9.2,2 0.8,-6.55 q 1.05,-8.8 1.05,-12 0,-6.3 -2,-10.75 l -2.05,-3.35 m 599.45,0.4 q -1.05,1.65 -1.9,3.8 -3,7.55 -3,19.55 0,3.05 1.45,7.9 l 0.25,0.85 -8.75,-1.75 -0.25,-0.8 q -1.35,-5.25 -1.35,-9.45 0,-12.15 3.85,-19.1 l 1.65,-2.45 8.05,1.45"
       id="path76"
       inkscape:connector-curvature="0"
       style="fill:#9d8060;fill-rule:evenodd;stroke:none" />
    <path
       d="m 396.55,263 q 0.25,-14.15 3.45,-24.95 2.15,-7.4 4.75,-10.85 l 1.15,0.1 q 6.4,0.4 12.95,-0.1 l 1.7,-0.15 q 1.4,3.1 2.65,7.5 2.8,9.7 2.8,20.7 l -0.45,6.05 -0.2,2.15 -15.45,0.7 h -0.05 L 396.55,263"
       id="path78"
       inkscape:connector-curvature="0"
       style="fill:#80674d;fill-rule:evenodd;stroke:none" />
    <path
       d="m 405.9,5.45 h 12.95 V 223.2 q -6.55,0.5 -12.95,0.05 V 5.45"
       id="path80"
       inkscape:connector-curvature="0"
       style="fill:#b4967a;fill-rule:evenodd;stroke:none" />
  </g>
</svg>
